<svg width="40" height="40" viewBox="0 0 40 40" fill="none" xmlns="http://www.w3.org/2000/svg">
<rect x="40" y="40" width="40" height="40" rx="8" transform="rotate(180 40 40)" fill="#193B41"/>
<mask id="mask0_1465_717" style="mask-type:alpha" maskUnits="userSpaceOnUse" x="8" y="8" width="24" height="24">
<rect x="8" y="8" width="24" height="24" fill="#D9D9D9"/>
</mask>
<g mask="url(#mask0_1465_717)">
<path d="M20 22.95C19.8667 22.95 19.7417 22.9292 19.625 22.8875C19.5084 22.8458 19.4 22.775 19.3 22.675L14.7 18.075C14.5167 17.8917 14.425 17.6583 14.425 17.375C14.425 17.0917 14.5167 16.8583 14.7 16.675C14.8834 16.4917 15.1167 16.4 15.4 16.4C15.6834 16.4 15.9167 16.4917 16.1 16.675L20 20.575L23.9 16.675C24.0834 16.4917 24.3167 16.4 24.6 16.4C24.8834 16.4 25.1167 16.4917 25.3 16.675C25.4834 16.8583 25.575 17.0917 25.575 17.375C25.575 17.6583 25.4834 17.8917 25.3 18.075L20.7 22.675C20.6 22.775 20.4917 22.8458 20.375 22.8875C20.2584 22.9292 20.1334 22.95 20 22.95Z" fill="#0CDCEA"/>
</g>
</svg>
