<svg width="40" height="40" viewBox="0 0 40 40" fill="none" xmlns="http://www.w3.org/2000/svg">
<rect x="40" y="40" width="40" height="40" rx="8" transform="rotate(180 40 40)" fill="#193B41"/>
<mask id="mask0_1465_694" style="mask-type:alpha" maskUnits="userSpaceOnUse" x="8" y="8" width="24" height="24">
<rect width="24" height="24" transform="matrix(-1 8.74228e-08 8.74228e-08 1 32 8)" fill="#D9D9D9"/>
</mask>
<g mask="url(#mask0_1465_694)">
<path d="M20.0002 18.8009L23.9002 22.7009C24.0835 22.8842 24.3169 22.9759 24.6002 22.9759C24.8835 22.9759 25.1169 22.8842 25.3002 22.7009C25.4835 22.5175 25.5752 22.2842 25.5752 22.0009C25.5752 21.7175 25.4835 21.4842 25.3002 21.3009L20.7002 16.7009C20.5002 16.5009 20.2669 16.4009 20.0002 16.4009C19.7335 16.4009 19.5002 16.5009 19.3002 16.7009L14.7002 21.3009C14.5169 21.4842 14.4252 21.7175 14.4252 22.0009C14.4252 22.2842 14.5169 22.5175 14.7002 22.7009C14.8835 22.8842 15.1169 22.9759 15.4002 22.9759C15.6835 22.9759 15.9169 22.8842 16.1002 22.7009L20.0002 18.8009Z" fill="#0CDCEA"/>
</g>
</svg>
