<svg width="68" height="68" viewBox="0 0 68 68" fill="none" xmlns="http://www.w3.org/2000/svg">
<g clip-path="url(#clip0_2374_14475)">
<rect width="68" height="68" rx="34" fill="#E0E0E0"/>
<mask id="mask0_2374_14475" style="mask-type:alpha" maskUnits="userSpaceOnUse" x="-6" y="8" width="96" height="96">
<rect x="-6" y="8" width="96" height="96" fill="#D9D9D9"/>
</mask>
<g mask="url(#mask0_2374_14475)">
<path d="M34.0005 45.3334C30.4386 45.3334 27.3894 44.0651 24.8528 41.5286C22.3163 38.9921 21.0481 35.9429 21.0481 32.381C21.0481 28.8191 22.3163 25.7699 24.8528 23.2334C27.3894 20.6968 30.4386 19.4286 34.0005 19.4286C37.5624 19.4286 40.6116 20.6968 43.1481 23.2334C45.6846 25.7699 46.9528 28.8191 46.9528 32.381C46.9528 35.9429 45.6846 38.9921 43.1481 41.5286C40.6116 44.0651 37.5624 45.3334 34.0005 45.3334ZM8.0957 64.7619V62.1714C8.0957 60.3365 8.56793 58.65 9.51237 57.1119C10.4568 55.5738 11.7116 54.4 13.2767 53.5905C16.6227 51.9175 20.0227 50.6627 23.4767 49.8262C26.9306 48.9897 30.4386 48.5714 34.0005 48.5714C37.5624 48.5714 41.0703 48.9897 44.5243 49.8262C47.9782 50.6627 51.3782 51.9175 54.7243 53.5905C56.2894 54.4 57.5441 55.5738 58.4886 57.1119C59.433 58.65 59.9052 60.3365 59.9052 62.1714V64.7619C59.9052 66.5429 59.2711 68.0675 58.0028 69.3357C56.7346 70.604 55.21 71.2381 53.429 71.2381H14.5719C12.7909 71.2381 11.2663 70.604 9.99808 69.3357C8.72983 68.0675 8.0957 66.5429 8.0957 64.7619Z" fill="white"/>
</g>
</g>
<defs>
<clipPath id="clip0_2374_14475">
<rect width="68" height="68" rx="34" fill="white"/>
</clipPath>
</defs>
</svg>
