<svg width="201" height="53" viewBox="0 0 201 53" fill="none" xmlns="http://www.w3.org/2000/svg">
<path fill-rule="evenodd" clip-rule="evenodd" d="M75.5779 16.7896L75.6947 35.2986C77.7078 38.947 86.7895 37.0097 88.594 32.5726C90.6948 27.4068 90.8577 15.7248 75.5779 16.7896ZM68.5825 15.0488V15.7313C68.5825 15.7313 71.2669 15.322 71.722 17.0507C71.7674 18.1883 71.6537 36.2288 71.6537 36.2288C71.6537 36.2288 71.5173 37.8668 69.1058 37.7985C69.1286 38.0487 69.1058 38.1284 69.1058 38.1284C69.1058 38.1284 75.0112 37.9932 77.6502 38.4696C96.7985 41.9254 98.6792 15.3543 82.9829 15.1947L68.5825 15.0488Z" fill="#BF2E1A"/>
<path fill-rule="evenodd" clip-rule="evenodd" d="M109.071 16.129C114.151 15.7879 118.488 20.9529 118.488 26.1819C118.602 31.57 117.209 36.7283 111.879 37.2285C107.436 37.2285 102.907 35.11 101.861 26.7414C101.861 21.5125 103.117 16.5324 109.071 16.129ZM110.117 14.5986C116.65 14.5986 122.915 18.5326 122.915 26.222C122.915 33.9114 116.832 38.6677 110.299 38.6677C103.766 38.6677 97.6045 34.4816 97.6045 26.7922C97.6047 19.1031 103.584 14.5986 110.117 14.5986Z" fill="#BF2E1A"/>
<path fill-rule="evenodd" clip-rule="evenodd" d="M127.804 15L127.099 18.2077C127.099 18.2077 126.849 18.8447 127.144 19.8911C127.417 19.1631 127.463 18.0255 129.078 17.3885C130.716 17.3202 135.539 17.3202 135.539 17.3202L135.448 36.7031C135.448 36.7031 135.414 38.4093 133.002 38.1818C132.98 38.4662 132.98 38.5345 132.98 38.5345L142.853 38.489L142.841 38.1251C142.841 38.1251 139.77 38.5687 139.611 36.7146C139.588 35.7364 139.429 17.3205 139.429 17.3205L145.116 17.4569C145.116 17.4569 147.073 17.5024 147.05 19.8911C147.323 20.0503 147.483 19.8229 147.505 19.5497C147.528 19.2768 147.619 16.2966 147.619 16.2966C147.619 16.2966 148.097 15.2727 147.483 15.1817C146.891 15.3866 146.209 15.5004 145.776 15.5004C145.344 15.5004 129.283 15.4776 129.283 15.4776C129.283 15.4776 128.555 15.0684 127.804 15Z" fill="#BF2E1A"/>
<path fill-rule="evenodd" clip-rule="evenodd" d="M163.693 20.745L159.598 31.3009L167.47 31.2099L163.693 20.745ZM164.205 14.4264L155.378 36.1295C155.378 36.1295 154.48 37.9381 152.011 37.7789C152.011 37.9724 152 38.0746 152 38.0746L160.065 38.0861L160.042 37.6652C160.042 37.6652 157.437 37.8701 157.778 36.5733C158.097 35.4814 159.041 32.8651 159.041 32.8651L168.073 32.8878L169.847 37.0964C169.847 37.0964 170.052 37.597 169.21 37.6425C169.21 37.9611 169.21 38.0008 169.21 38.0008L177.263 38.1146L177.24 37.5912C177.24 37.5912 175.307 38.1373 174.237 36.6586C173.441 35.3163 172.304 32.8594 172.304 32.8594C172.304 32.8594 173.532 32.9731 174.237 32.5407C174.965 32.2451 176.264 31.8582 177.855 31.8582C178.06 31.6081 177.809 31.3349 177.218 31.2894C176.604 31.244 171.644 31.244 171.644 31.244L164.876 14.5115C164.876 14.5115 164.512 13.4196 164.205 14.4264Z" fill="#BF2E1A"/>
<path fill-rule="evenodd" clip-rule="evenodd" d="M186.038 21.3754C186.038 21.3754 185.31 17.3715 185.492 16.4161C191.657 12.7989 205.238 15.8701 196.457 28.4278C195.547 29.5654 191.998 33.3873 188.54 35.9352C191.059 35.9752 195.545 35.8043 196.596 35.7625C199.349 35.6529 199.256 32.3649 200.198 32.3407L199.369 37.175C199.369 37.175 199.346 38.6083 197.685 38.4716C196.025 38.4489 184.513 38.5173 184.513 38.5173C184.513 38.5173 183.422 38.5401 184.422 37.6756C186.075 36.111 195.348 28.9757 195.06 21.5C194.815 15.1349 187.294 14.2167 186.038 21.3754Z" fill="#BF2E1A"/>
<path fill-rule="evenodd" clip-rule="evenodd" d="M10.0121 31.5708C10.5264 31.8924 10.8578 32.2094 11.3556 32.6108L15.386 36.351C16.227 37.1519 18.3796 39.327 19.2072 40.2909C19.7717 40.9485 20.0168 41.019 20.4323 41.6673C20.2799 41.724 18.3969 42.1567 17.3019 42.5337C15.0215 43.3186 12.9448 44.5762 10.9591 43.9026C10.662 43.8018 9.31018 42.5099 8.6904 42.073C8.32361 41.8145 7.97434 41.5704 7.55219 41.2753C6.34371 40.4302 5.99727 41.0121 7.60269 37.2692C8.02247 36.2905 8.37795 35.409 8.77756 34.4495C9.12651 33.6115 9.60739 32.2566 10.0121 31.5708ZM38.9722 8.97359C39.8013 9.26203 41.8113 10.4113 42.304 11.0296C42.7188 11.55 42.5987 11.5979 42.4453 12.3477L41.6279 18.7487C40.4956 18.7903 40.8227 18.6552 40.1208 18.1839C38.9434 17.3936 34.9044 14.4079 33.6075 13.3617L31.1132 11.356C31.2972 11.184 31.0499 11.2741 31.4653 11.1655L35.1573 10.3333C37.0803 9.85077 37.3785 9.72427 38.9722 8.97359ZM5.87241 10.2621C6.71827 9.78697 7.16892 10.1478 8.59577 9.11376C8.97818 8.83664 9.85804 8.86398 10.3922 8.93737C10.9458 9.01343 12.2205 10.0769 12.8052 10.4362C13.1432 10.644 14.6648 11.8066 14.9128 12.2087L15.6642 13.4226C16.6996 13.4736 16.5177 13.4135 17.8242 14.37L30.328 22.6268C33.0167 24.4963 36.1541 26.4064 38.8582 28.2902L46.5651 33.3378C46.3428 33.8164 46.0824 35.4675 45.9369 36.1275C45.2693 39.1594 44.4298 40.4436 43.0706 43.3591C41.1178 43.436 39.5764 43.4212 37.6682 43.3906C37.0505 43.3807 37.2026 43.5103 36.8648 43.1828C35.7476 42.0995 33.7157 39.7218 32.5859 38.6255C32.1956 38.2467 31.8445 37.8913 31.4579 37.4791C28.3341 34.1486 29.8128 35.1519 29.2016 34.3228L22.916 28.3775C21.473 26.9735 20.1729 25.4617 18.681 23.8803C18.2979 23.4742 18.1055 23.0911 17.7061 22.7222L17.5956 22.6225C17.4889 22.5179 17.5297 22.5611 17.4306 22.4473L15.6046 20.3705C15.283 20.0729 15.3137 20.0828 15.0778 19.8148L13.4357 18.1197C13.0745 17.7407 12.793 17.3484 12.4493 16.9396L10.8799 15.2738C10.6463 15.0365 10.477 14.9655 10.247 14.7257C9.50076 13.9482 8.8732 13.2037 8.1189 12.4269C7.51537 11.8053 6.04619 10.6104 5.87241 10.2621ZM13.4106 0.973197L0.5105 1.23869C-0.18522 3.80793 0.506261 2.50748 0.507988 5.18978L0.50563 10.0463C0.40033 11.449 0.0311117 12.1636 0.0318184 14.0394C0.032054 14.671 -0.107482 16.1194 0.196012 16.614C0.73335 17.4897 0.71992 18.2314 0.946147 19.4966C1.14717 20.6207 1.36617 20.5025 0.859615 21.3503L0.623497 23.4979L1.72589 24.5769L1.73406 26.4631C1.07784 27.0649 1.81203 26.6365 0.424519 27.638L0.548583 33.3356L1.91482 34.3282L1.62923 39.1851C0.188318 40.2188 0.498091 41.4721 0.544106 42.7594L0.720238 47.6031L0.403943 50.0852C3.63292 50.8982 2.9251 50.6462 6.6158 50.6459C9.87751 50.6457 9.45647 50.6793 12.6803 50.2874L12.7636 50.8373C13.2631 50.805 13.7791 50.7776 14.2715 50.7297C15.6436 50.5962 15.0953 50.4376 15.5677 50.2663C15.9092 50.1424 19.5856 50.9965 20.1828 51.1253C20.5124 50.7562 20.3446 50.9051 20.8046 50.6076C21.0531 51.1332 22.1165 52.339 22.5496 52.8634L23.881 51.6129L26.2101 52.5175L26.8925 51.9432C27.1584 52.2581 27.3206 52.6534 27.7954 52.7157C28.487 52.8064 28.5998 51.6601 30.1255 51.631L38.9722 51.3357C39.0858 51.226 39.1533 51.1613 39.2751 51.0419L39.7272 50.6738C40.3084 51.0243 40.5563 51.3614 41.3534 51.3085C43.7934 51.1467 42.5164 51.8996 45.6655 51.7302C46.2082 51.701 46.0734 51.5675 46.5523 51.3987L47.5745 51.2408C47.3524 50.6448 47.21 50.7287 46.7682 50.2833L52.3723 51.4173C52.2971 44.817 52.3113 36.7638 52.395 29.9732L50.8884 30.0858C50.9428 29.645 51.5996 29.8107 51.6513 28.9245C51.7164 27.8075 51.7045 23.9835 51.542 23.1662C51.459 22.7486 50.396 21.5306 50.1119 21.1518C50.4499 20.2319 50.4835 20.293 51.1095 19.5434C51.0566 19.0499 50.9412 18.918 50.7296 18.3562L52.3719 17.8178C52.3899 16.8725 52.4962 13.0798 52.4346 11.8809L51.7691 5.40562L52.2775 3.78679L52.2995 2.1231C50.8809 1.30485 51.0664 1.21457 50.0813 1.22133C49.1976 1.22738 48.0067 1.18024 47.1592 0.986083C46.0714 0.736852 46.3634 0.560064 45.1709 1.78509L44.6298 0.605793C42.9269 0.479527 37.4668 0.00220002 36.168 0.00220002C34.508 0.00220002 34.7486 0.126816 34.1878 2.01287L31.805 2.25809L31.4881 1.22683L29.329 1.20216L29.5579 0.950019C29.98 0.547571 29.832 0.709744 30.1623 0L21.4788 0.00102148C21.1918 0.532013 20.6671 0.936033 20.0485 1.14158C19.1838 1.42884 19.6119 0.965733 19.0656 1.4561C18.6566 1.82319 18.5856 1.80025 17.9407 1.78729C17.085 1.77008 16.2072 1.74258 15.3519 1.70714C14.9574 1.6908 14.5234 1.73056 14.1442 1.6409C13.56 1.50293 13.73 1.35113 13.4106 0.973197Z" fill="#BF2E1A"/>
</svg>
