<svg width="40" height="41" viewBox="0 0 40 41" fill="none" xmlns="http://www.w3.org/2000/svg">
<rect x="40" y="40.1914" width="40" height="40" rx="8" transform="rotate(180 40 40.1914)" fill="#333217"/>
<mask id="mask0_2342_4798" style="mask-type:alpha" maskUnits="userSpaceOnUse" x="8" y="8" width="24" height="25">
<rect x="8" y="8.19141" width="24" height="24" fill="#D9D9D9"/>
</mask>
<g mask="url(#mask0_2342_4798)">
<path d="M20 23.1413C19.8667 23.1413 19.7417 23.1205 19.625 23.0788C19.5084 23.0371 19.4 22.9663 19.3 22.8663L14.7 18.2663C14.5167 18.083 14.425 17.8496 14.425 17.5663C14.425 17.283 14.5167 17.0496 14.7 16.8663C14.8834 16.683 15.1167 16.5913 15.4 16.5913C15.6834 16.5913 15.9167 16.683 16.1 16.8663L20 20.7663L23.9 16.8663C24.0834 16.683 24.3167 16.5913 24.6 16.5913C24.8834 16.5913 25.1167 16.683 25.3 16.8663C25.4834 17.0496 25.575 17.283 25.575 17.5663C25.575 17.8496 25.4834 18.083 25.3 18.2663L20.7 22.8663C20.6 22.9663 20.4917 23.0371 20.375 23.0788C20.2584 23.1205 20.1334 23.1413 20 23.1413Z" fill="#EAD40C"/>
</g>
</svg>
