<svg width="46" height="46" viewBox="0 0 46 46" fill="none" xmlns="http://www.w3.org/2000/svg">
<rect x="46" y="46" width="46" height="46" rx="8" transform="rotate(180 46 46)" fill="#3A2159"/>
<mask id="mask0_2551_9958" style="mask-type:alpha" maskUnits="userSpaceOnUse" x="11" y="11" width="24" height="24">
<rect width="24" height="24" transform="matrix(-1 8.74228e-08 8.74228e-08 1 35 11)" fill="#D9D9D9"/>
</mask>
<g mask="url(#mask0_2551_9958)">
<path d="M23.0002 21.8009L26.9002 25.7009C27.0835 25.8842 27.3169 25.9759 27.6002 25.9759C27.8835 25.9759 28.1169 25.8842 28.3002 25.7009C28.4835 25.5175 28.5752 25.2842 28.5752 25.0009C28.5752 24.7175 28.4835 24.4842 28.3002 24.3009L23.7002 19.7009C23.5002 19.5009 23.2669 19.4009 23.0002 19.4009C22.7335 19.4009 22.5002 19.5009 22.3002 19.7009L17.7002 24.3009C17.5169 24.4842 17.4252 24.7175 17.4252 25.0009C17.4252 25.2842 17.5169 25.5175 17.7002 25.7009C17.8835 25.8842 18.1169 25.9759 18.4002 25.9759C18.6835 25.9759 18.9169 25.8842 19.1002 25.7009L23.0002 21.8009Z" fill="#AE6FFF"/>
</g>
</svg>
