<svg width="24" height="25" viewBox="0 0 24 25" fill="none" xmlns="http://www.w3.org/2000/svg">
<path fill-rule="evenodd" clip-rule="evenodd" d="M2.82324 7.62527V11.9272L3.09208 12.464L3.36093 13.0008V14.5072V16.0136L3.09208 16.5504L2.82324 17.0872V19.3818V21.6763H7.39323H11.9632L12.4475 21.435L12.9317 21.1936L13.4159 21.435L13.9002 21.6763H17.5382H21.1762V18.0383V14.4003L20.9348 13.9161L20.6935 13.4318L20.9348 12.9476L21.1762 12.4633V7.89335V3.32336H20.0474H18.9186L18.4343 3.56471L17.9501 3.80606L17.4658 3.56471L16.9816 3.32336H14.777H12.5723L12.0356 3.59221L11.4988 3.86105H9.99236H8.48595L7.94916 3.59221L7.41237 3.32336H5.11779H2.82324V7.62527ZM9.25451 8.13951C12.1302 10.2984 17.9291 14.6566 17.9453 14.6711C17.9578 14.6823 17.4666 18.2016 17.4291 18.3695L17.411 18.4502L16.3274 18.4492L15.2437 18.4482L14.724 17.8355C13.7665 16.7068 13.877 16.8822 13.7078 16.2224L13.559 15.6421L13.0148 15.4128L12.4706 15.1836L9.43023 11.6111C7.75803 9.64617 6.31077 7.94415 6.21406 7.82872L6.0382 7.61892L6.57205 7.08421C6.86566 6.7901 7.11281 6.54947 7.12124 6.54947C7.1297 6.54947 8.08968 7.26498 9.25451 8.13951ZM17.1532 7.34771L17.9508 8.14592L17.9415 9.7674L17.9322 11.3888L15.5127 8.96915L13.0932 6.54947H14.7244H16.3556L17.1532 7.34771ZM9.26728 18.4416L7.6458 18.451L6.84759 17.6533L6.04935 16.8557V15.2245V13.5933L8.46903 16.0128L10.8887 18.4323L9.26728 18.4416Z" fill="#BF2E1A"/>
</svg>
