<svg width="40" height="40" viewBox="0 0 40 40" fill="none" xmlns="http://www.w3.org/2000/svg">
<rect x="40" y="40" width="40" height="40" rx="8" transform="rotate(180 40 40)" fill="#193B41"/>
<mask id="mask0_1661_6373" style="mask-type:alpha" maskUnits="userSpaceOnUse" x="8" y="8" width="24" height="24">
<rect x="8" y="8" width="24" height="24" fill="#D9D9D9"/>
</mask>
<g mask="url(#mask0_1661_6373)">
<path d="M12.1996 28.9749C11.8496 29.0582 11.5455 28.9707 11.2871 28.7124C11.0288 28.4541 10.9413 28.1499 11.0246 27.7999L11.8996 23.5499L16.4496 28.0999L12.1996 28.9749ZM18.0746 26.8749L13.1246 21.9249L23.4496 11.5999C23.833 11.2166 24.308 11.0249 24.8746 11.0249C25.4413 11.0249 25.9163 11.2166 26.2996 11.5999L28.3996 13.6999C28.783 14.0832 28.9746 14.5582 28.9746 15.1249C28.9746 15.6916 28.783 16.1666 28.3996 16.5499L18.0746 26.8749Z" fill="#0CDCEA"/>
</g>
</svg>
