<svg width="24" height="24" viewBox="0 0 24 24" fill="none" xmlns="http://www.w3.org/2000/svg">
<mask id="mask0_2515_6408" style="mask-type:alpha" maskUnits="userSpaceOnUse" x="0" y="0" width="24" height="24">
<path d="M0 24L-1.04907e-06 0L24 -1.04907e-06L24 24L0 24Z" fill="#D9D9D9"/>
</mask>
<g mask="url(#mask0_2515_6408)">
<path d="M22 12C22 13.3667 21.7375 14.6583 21.2125 15.875C20.6875 17.0917 19.9708 18.1542 19.0625 19.0625C18.1542 19.9708 17.0917 20.6875 15.875 21.2125C14.6583 21.7375 13.3667 22 12 22C10.6167 22 9.32083 21.7375 8.1125 21.2125C6.90417 20.6875 5.84583 19.9708 4.9375 19.0625C4.02917 18.1542 3.3125 17.0917 2.7875 15.875C2.2625 14.6583 2 13.3667 2 12C2 11.7167 2.09583 11.4792 2.2875 11.2875C2.47917 11.0958 2.71667 11 3 11C3.28333 11 3.52083 11.0958 3.7125 11.2875C3.90417 11.4792 4 11.7167 4 12C4 14.2167 4.77917 16.1042 6.3375 17.6625C7.89583 19.2208 9.78333 20 12 20C14.2167 20 16.1042 19.2208 17.6625 17.6625C19.2208 16.1042 20 14.2167 20 12C20 9.78333 19.2208 7.89583 17.6625 6.3375C16.1042 4.77917 14.2167 4 12 4C11.7167 4 11.4792 3.90417 11.2875 3.7125C11.0958 3.52083 11 3.28333 11 3C11 2.71667 11.0958 2.47917 11.2875 2.2875C11.4792 2.09583 11.7167 2 12 2C13.3667 2 14.6583 2.2625 15.875 2.7875C17.0917 3.3125 18.1542 4.02917 19.0625 4.9375C19.9708 5.84583 20.6875 6.90417 21.2125 8.1125C21.7375 9.32083 22 10.6167 22 12Z" fill="#1B1E23"/>
</g>
</svg>
