<svg width="24" height="25" viewBox="0 0 24 25" fill="none" xmlns="http://www.w3.org/2000/svg">
<mask id="mask0_2122_8838" style="mask-type:alpha" maskUnits="userSpaceOnUse" x="0" y="0" width="24" height="25">
<rect y="0.5" width="24" height="24" fill="#D9D9D9"/>
</mask>
<g mask="url(#mask0_2122_8838)">
<path d="M12.5 12.45C12.9833 11.9167 13.3542 11.3083 13.6125 10.625C13.8708 9.94167 14 9.23333 14 8.5C14 7.76667 13.8708 7.05833 13.6125 6.375C13.3542 5.69167 12.9833 5.08333 12.5 4.55C13.5 4.68333 14.3333 5.125 15 5.875C15.6667 6.625 16 7.5 16 8.5C16 9.5 15.6667 10.375 15 11.125C14.3333 11.875 13.5 12.3167 12.5 12.45ZM17.45 20.5C17.6333 20.2 17.7708 19.8792 17.8625 19.5375C17.9542 19.1958 18 18.85 18 18.5V17.5C18 16.9 17.8667 16.3292 17.6 15.7875C17.3333 15.2458 16.9833 14.7667 16.55 14.35C17.4 14.65 18.1875 15.0375 18.9125 15.5125C19.6375 15.9875 20 16.65 20 17.5V18.5C20 19.05 19.8042 19.5208 19.4125 19.9125C19.0208 20.3042 18.55 20.5 18 20.5H17.45ZM20 11.5H19C18.7167 11.5 18.4792 11.4042 18.2875 11.2125C18.0958 11.0208 18 10.7833 18 10.5C18 10.2167 18.0958 9.97917 18.2875 9.7875C18.4792 9.59583 18.7167 9.5 19 9.5H20V8.5C20 8.21667 20.0958 7.97917 20.2875 7.7875C20.4792 7.59583 20.7167 7.5 21 7.5C21.2833 7.5 21.5208 7.59583 21.7125 7.7875C21.9042 7.97917 22 8.21667 22 8.5V9.5H23C23.2833 9.5 23.5208 9.59583 23.7125 9.7875C23.9042 9.97917 24 10.2167 24 10.5C24 10.7833 23.9042 11.0208 23.7125 11.2125C23.5208 11.4042 23.2833 11.5 23 11.5H22V12.5C22 12.7833 21.9042 13.0208 21.7125 13.2125C21.5208 13.4042 21.2833 13.5 21 13.5C20.7167 13.5 20.4792 13.4042 20.2875 13.2125C20.0958 13.0208 20 12.7833 20 12.5V11.5ZM8 12.5C6.9 12.5 5.95833 12.1083 5.175 11.325C4.39167 10.5417 4 9.6 4 8.5C4 7.4 4.39167 6.45833 5.175 5.675C5.95833 4.89167 6.9 4.5 8 4.5C9.1 4.5 10.0417 4.89167 10.825 5.675C11.6083 6.45833 12 7.4 12 8.5C12 9.6 11.6083 10.5417 10.825 11.325C10.0417 12.1083 9.1 12.5 8 12.5ZM0 18.5V17.7C0 17.1333 0.145833 16.6125 0.4375 16.1375C0.729167 15.6625 1.11667 15.3 1.6 15.05C2.63333 14.5333 3.68333 14.1458 4.75 13.8875C5.81667 13.6292 6.9 13.5 8 13.5C9.1 13.5 10.1833 13.6292 11.25 13.8875C12.3167 14.1458 13.3667 14.5333 14.4 15.05C14.8833 15.3 15.2708 15.6625 15.5625 16.1375C15.8542 16.6125 16 17.1333 16 17.7V18.5C16 19.05 15.8042 19.5208 15.4125 19.9125C15.0208 20.3042 14.55 20.5 14 20.5H2C1.45 20.5 0.979167 20.3042 0.5875 19.9125C0.195833 19.5208 0 19.05 0 18.5Z" fill="#07EF9C"/>
</g>
</svg>
