<svg width="32" height="32" viewBox="0 0 32 32" fill="none" xmlns="http://www.w3.org/2000/svg">
<rect width="32" height="32" rx="8" fill="#333217"/>
<mask id="mask0_1692_11671" style="mask-type:alpha" maskUnits="userSpaceOnUse" x="8" y="8" width="16" height="16">
<rect x="8" y="8" width="16" height="16" fill="#D9D9D9"/>
</mask>
<g mask="url(#mask0_1692_11671)">
<path d="M9.99935 22.6666C9.63268 22.6666 9.3189 22.5361 9.05802 22.2753C8.79668 22.0139 8.66602 21.6999 8.66602 21.3333L8.66602 13.3333C8.66602 12.9666 8.79668 12.6528 9.05802 12.3919C9.3189 12.1306 9.63268 11.9999 9.99935 11.9999H12.0993L12.9327 11.0999C13.0549 10.9666 13.202 10.861 13.374 10.7833C13.5465 10.7055 13.7271 10.6666 13.916 10.6666H16.666C16.8549 10.6666 17.0133 10.7304 17.1413 10.8579C17.2689 10.9859 17.3327 11.1444 17.3327 11.3333V12.6666C17.3327 12.8555 17.3967 13.0139 17.5247 13.1419C17.6522 13.2695 17.8105 13.3333 17.9993 13.3333H19.3327V14.6666C19.3327 14.8555 19.3967 15.0137 19.5247 15.1413C19.6522 15.2693 19.8105 15.3333 19.9993 15.3333H21.3327C21.5216 15.3333 21.6798 15.397 21.8073 15.5246C21.9353 15.6526 21.9993 15.811 21.9993 15.9999V21.3333C21.9993 21.6999 21.8689 22.0139 21.608 22.2753C21.3467 22.5361 21.0327 22.6666 20.666 22.6666H9.99935ZM15.3327 20.3333C16.166 20.3333 16.8745 20.0417 17.458 19.4586C18.0411 18.875 18.3327 18.1666 18.3327 17.3333C18.3327 16.4999 18.0411 15.7915 17.458 15.2079C16.8745 14.6248 16.166 14.3333 15.3327 14.3333C14.4993 14.3333 13.7909 14.6248 13.2073 15.2079C12.6242 15.7915 12.3327 16.4999 12.3327 17.3333C12.3327 18.1666 12.6242 18.875 13.2073 19.4586C13.7909 20.0417 14.4993 20.3333 15.3327 20.3333ZM20.666 11.9999H19.9993C19.8105 11.9999 19.6522 11.9361 19.5247 11.8086C19.3967 11.6806 19.3327 11.5221 19.3327 11.3333C19.3327 11.1444 19.3967 10.9859 19.5247 10.8579C19.6522 10.7304 19.8105 10.6666 19.9993 10.6666H20.666V9.99992C20.666 9.81103 20.73 9.65259 20.858 9.52459C20.9856 9.39703 21.1438 9.33325 21.3327 9.33325C21.5216 9.33325 21.6798 9.39703 21.8073 9.52459C21.9353 9.65259 21.9993 9.81103 21.9993 9.99992V10.6666H22.666C22.8549 10.6666 23.0131 10.7304 23.1407 10.8579C23.2687 10.9859 23.3327 11.1444 23.3327 11.3333C23.3327 11.5221 23.2687 11.6806 23.1407 11.8086C23.0131 11.9361 22.8549 11.9999 22.666 11.9999H21.9993V12.6666C21.9993 12.8555 21.9353 13.0139 21.8073 13.1419C21.6798 13.2695 21.5216 13.3333 21.3327 13.3333C21.1438 13.3333 20.9856 13.2695 20.858 13.1419C20.73 13.0139 20.666 12.8555 20.666 12.6666V11.9999Z" fill="#EAD40C"/>
</g>
</svg>
