<svg width="120" height="77" viewBox="0 0 120 77" fill="none" xmlns="http://www.w3.org/2000/svg">
<rect width="120" height="76.4536" rx="8" fill="#333217"/>
<path d="M31.9725 22.0619C23.5601 22.0619 16.6598 28.6048 16 36.9347L24.5773 40.5086C25.2921 40.0138 26.1718 39.7114 27.134 39.7114C27.2165 39.7114 27.299 39.7114 27.3814 39.7114L31.2028 34.1306V34.0481C31.2028 30.6942 33.9244 27.9451 37.2509 27.9451C40.5773 27.9451 43.299 30.6667 43.299 34.0481C43.299 37.4021 40.5773 40.1512 37.2509 40.1512C37.1959 40.1512 37.1684 40.1512 37.1134 40.1512L31.6701 44.0825C31.6701 44.165 31.6701 44.22 31.6701 44.3024C31.6701 46.8317 29.6357 48.866 27.134 48.866C24.9347 48.866 23.0928 47.2715 22.6804 45.1822L16.5498 42.6255C18.4467 49.4158 24.6323 54.3918 31.9725 54.3918C40.8247 54.3918 48 47.1615 48 38.2268C47.9725 29.2921 40.7973 22.0619 31.9725 22.0619ZM26.0344 46.5842L24.055 45.7595C24.4124 46.5018 25.0172 47.1066 25.8144 47.4365C27.5464 48.1512 29.5533 47.3265 30.268 45.5945C30.6254 44.7423 30.6254 43.8076 30.268 42.9554C29.9107 42.1031 29.2784 41.4433 28.4261 41.0859C27.6014 40.7286 26.6942 40.756 25.9244 41.0585L27.9588 41.9107C29.2234 42.4605 29.8282 43.9176 29.3058 45.2097C28.7835 46.5292 27.3265 47.1341 26.0344 46.5842ZM41.2646 34.0481C41.2646 31.8213 39.4502 29.9794 37.2509 29.9794C35.0241 29.9794 33.2371 31.7938 33.2371 34.0481C33.2371 36.275 35.0515 38.1169 37.2509 38.1169C39.4777 38.1169 41.2646 36.3024 41.2646 34.0481ZM34.2268 34.0481C34.2268 32.3712 35.5739 30.9966 37.2509 30.9966C38.9278 30.9966 40.2749 32.3712 40.2749 34.0481C40.2749 35.7251 38.9278 37.0997 37.2509 37.0997C35.5739 37.0997 34.2268 35.7251 34.2268 34.0481Z" fill="#EAD40C"/>
<path d="M58.528 40.4188C58.528 40.8561 58.6027 41.2295 58.752 41.5388C58.9013 41.8481 59.1093 42.1041 59.376 42.3068C59.6427 42.4988 59.9467 42.6428 60.288 42.7388C60.64 42.8241 61.0187 42.8668 61.424 42.8668C61.8613 42.8668 62.2347 42.8188 62.544 42.7228C62.8533 42.6161 63.104 42.4828 63.296 42.3228C63.488 42.1628 63.6267 41.9815 63.712 41.7788C63.7973 41.5655 63.84 41.3521 63.84 41.1388C63.84 40.7015 63.7387 40.3815 63.536 40.1788C63.344 39.9655 63.1307 39.8161 62.896 39.7308C62.4907 39.5815 62.016 39.4428 61.472 39.3148C60.9387 39.1761 60.2773 39.0001 59.488 38.7868C58.9973 38.6588 58.5867 38.4935 58.256 38.2908C57.936 38.0775 57.68 37.8428 57.488 37.5868C57.296 37.3308 57.1573 37.0588 57.072 36.7708C56.9973 36.4828 56.96 36.1895 56.96 35.8908C56.96 35.3148 57.0773 34.8188 57.312 34.4028C57.5573 33.9761 57.8773 33.6241 58.272 33.3468C58.6667 33.0695 59.1147 32.8668 59.616 32.7388C60.1173 32.6001 60.624 32.5308 61.136 32.5308C61.7333 32.5308 62.2933 32.6108 62.816 32.7708C63.3493 32.9201 63.8133 33.1495 64.208 33.4588C64.6133 33.7681 64.9333 34.1521 65.168 34.6108C65.4027 35.0588 65.52 35.5815 65.52 36.1788H63.52C63.4667 35.4428 63.216 34.9255 62.768 34.6268C62.32 34.3175 61.7493 34.1628 61.056 34.1628C60.8213 34.1628 60.5813 34.1895 60.336 34.2428C60.0907 34.2855 59.8667 34.3655 59.664 34.4828C59.4613 34.5895 59.2907 34.7388 59.152 34.9308C59.024 35.1228 58.96 35.3628 58.96 35.6508C58.96 36.0561 59.0827 36.3761 59.328 36.6108C59.584 36.8348 59.9147 37.0055 60.32 37.1228C60.3627 37.1335 60.528 37.1815 60.816 37.2668C61.1147 37.3415 61.4453 37.4268 61.808 37.5228C62.1707 37.6188 62.5227 37.7148 62.864 37.8108C63.216 37.8961 63.4667 37.9601 63.616 38.0028C63.9893 38.1201 64.3147 38.2801 64.592 38.4828C64.8693 38.6855 65.0987 38.9201 65.28 39.1868C65.472 39.4428 65.6107 39.7201 65.696 40.0188C65.792 40.3175 65.84 40.6161 65.84 40.9148C65.84 41.5548 65.7067 42.1041 65.44 42.5628C65.184 43.0108 64.8427 43.3788 64.416 43.6668C63.9893 43.9548 63.504 44.1628 62.96 44.2908C62.416 44.4295 61.8613 44.4988 61.296 44.4988C60.6453 44.4988 60.032 44.4188 59.456 44.2588C58.88 44.0988 58.3787 43.8535 57.952 43.5228C57.5253 43.1921 57.184 42.7708 56.928 42.2588C56.672 41.7361 56.5387 41.1228 56.528 40.4188H58.528ZM66.503 35.9548H67.879V33.4748H69.703V35.9548H71.351V37.3148H69.703V41.7308C69.703 41.9228 69.7083 42.0881 69.719 42.2268C69.7403 42.3655 69.7777 42.4828 69.831 42.5788C69.895 42.6748 69.9857 42.7495 70.103 42.8028C70.2203 42.8455 70.3803 42.8668 70.583 42.8668C70.711 42.8668 70.839 42.8668 70.967 42.8668C71.095 42.8561 71.223 42.8348 71.351 42.8028V44.2108C71.1483 44.2321 70.951 44.2535 70.759 44.2748C70.567 44.2961 70.3697 44.3068 70.167 44.3068C69.687 44.3068 69.2977 44.2641 68.999 44.1788C68.711 44.0828 68.4817 43.9495 68.311 43.7788C68.151 43.5975 68.039 43.3735 67.975 43.1068C67.9217 42.8401 67.8897 42.5361 67.879 42.1948V37.3148H66.503V35.9548ZM78.3431 39.3628C78.3218 39.0748 78.2578 38.7975 78.1511 38.5308C78.0551 38.2641 77.9165 38.0348 77.7351 37.8428C77.5645 37.6401 77.3511 37.4801 77.0951 37.3628C76.8498 37.2348 76.5725 37.1708 76.2631 37.1708C75.9431 37.1708 75.6498 37.2295 75.3831 37.3468C75.1271 37.4535 74.9031 37.6081 74.7111 37.8108C74.5298 38.0028 74.3805 38.2321 74.2631 38.4988C74.1565 38.7655 74.0978 39.0535 74.0871 39.3628H78.3431ZM74.0871 40.5628C74.0871 40.8828 74.1298 41.1921 74.2151 41.4908C74.3111 41.7895 74.4498 42.0508 74.6311 42.2748C74.8125 42.4988 75.0418 42.6801 75.3191 42.8188C75.5965 42.9468 75.9271 43.0108 76.3111 43.0108C76.8445 43.0108 77.2711 42.8988 77.5911 42.6748C77.9218 42.4401 78.1671 42.0935 78.3271 41.6348H80.0551C79.9591 42.0828 79.7938 42.4828 79.5591 42.8348C79.3245 43.1868 79.0418 43.4855 78.7111 43.7308C78.3805 43.9655 78.0071 44.1415 77.5911 44.2588C77.1858 44.3868 76.7591 44.4508 76.3111 44.4508C75.6605 44.4508 75.0845 44.3441 74.5831 44.1308C74.0818 43.9175 73.6551 43.6188 73.3031 43.2348C72.9618 42.8508 72.7005 42.3921 72.5191 41.8588C72.3485 41.3255 72.2631 40.7388 72.2631 40.0988C72.2631 39.5121 72.3538 38.9575 72.5351 38.4348C72.7271 37.9015 72.9938 37.4375 73.3351 37.0428C73.6871 36.6375 74.1085 36.3175 74.5991 36.0828C75.0898 35.8481 75.6445 35.7308 76.2631 35.7308C76.9138 35.7308 77.4951 35.8695 78.0071 36.1468C78.5298 36.4135 78.9618 36.7708 79.3031 37.2188C79.6445 37.6668 79.8898 38.1841 80.0391 38.7708C80.1991 39.3468 80.2418 39.9441 80.1671 40.5628H74.0871ZM88.4818 42.3868C88.4818 42.6108 88.5084 42.7708 88.5618 42.8668C88.6258 42.9628 88.7431 43.0108 88.9138 43.0108C88.9671 43.0108 89.0311 43.0108 89.1058 43.0108C89.1804 43.0108 89.2658 43.0001 89.3618 42.9788V44.2428C89.2978 44.2641 89.2124 44.2855 89.1058 44.3068C89.0098 44.3388 88.9084 44.3655 88.8018 44.3868C88.6951 44.4081 88.5884 44.4241 88.4818 44.4348C88.3751 44.4455 88.2844 44.4508 88.2098 44.4508C87.8364 44.4508 87.5271 44.3761 87.2818 44.2268C87.0364 44.0775 86.8764 43.8161 86.8018 43.4428C86.4391 43.7948 85.9911 44.0508 85.4578 44.2108C84.9351 44.3708 84.4284 44.4508 83.9378 44.4508C83.5644 44.4508 83.2071 44.3975 82.8658 44.2908C82.5244 44.1948 82.2204 44.0508 81.9538 43.8588C81.6978 43.6561 81.4898 43.4055 81.3298 43.1068C81.1804 42.7975 81.1058 42.4401 81.1058 42.0348C81.1058 41.5228 81.1964 41.1068 81.3778 40.7868C81.5698 40.4668 81.8151 40.2161 82.1138 40.0348C82.4231 39.8535 82.7644 39.7255 83.1378 39.6508C83.5218 39.5655 83.9058 39.5015 84.2898 39.4588C84.6204 39.3948 84.9351 39.3521 85.2338 39.3308C85.5324 39.2988 85.7938 39.2508 86.0178 39.1868C86.2524 39.1228 86.4338 39.0268 86.5618 38.8988C86.7004 38.7601 86.7698 38.5575 86.7698 38.2908C86.7698 38.0561 86.7111 37.8641 86.5938 37.7148C86.4871 37.5655 86.3484 37.4535 86.1778 37.3788C86.0178 37.2935 85.8364 37.2401 85.6338 37.2188C85.4311 37.1868 85.2391 37.1708 85.0578 37.1708C84.5458 37.1708 84.1244 37.2775 83.7938 37.4908C83.4631 37.7041 83.2764 38.0348 83.2338 38.4828H81.4098C81.4418 37.9495 81.5698 37.5068 81.7938 37.1548C82.0178 36.8028 82.3004 36.5201 82.6418 36.3068C82.9938 36.0935 83.3884 35.9441 83.8258 35.8588C84.2631 35.7735 84.7111 35.7308 85.1698 35.7308C85.5751 35.7308 85.9751 35.7735 86.3698 35.8588C86.7644 35.9441 87.1164 36.0828 87.4258 36.2748C87.7458 36.4668 88.0018 36.7175 88.1938 37.0268C88.3858 37.3255 88.4818 37.6935 88.4818 38.1308V42.3868ZM86.6578 40.0828C86.3804 40.2641 86.0391 40.3761 85.6338 40.4188C85.2284 40.4508 84.8231 40.5041 84.4178 40.5788C84.2258 40.6108 84.0391 40.6588 83.8578 40.7228C83.6764 40.7761 83.5164 40.8561 83.3778 40.9628C83.2391 41.0588 83.1271 41.1921 83.0418 41.3628C82.9671 41.5228 82.9298 41.7201 82.9298 41.9548C82.9298 42.1575 82.9884 42.3281 83.1058 42.4668C83.2231 42.6055 83.3618 42.7175 83.5218 42.8028C83.6924 42.8775 83.8738 42.9308 84.0658 42.9628C84.2684 42.9948 84.4498 43.0108 84.6098 43.0108C84.8124 43.0108 85.0311 42.9841 85.2658 42.9308C85.5004 42.8775 85.7191 42.7868 85.9218 42.6588C86.1351 42.5308 86.3111 42.3708 86.4498 42.1788C86.5884 41.9761 86.6578 41.7308 86.6578 41.4428V40.0828ZM90.4444 35.9548H92.1724V37.1068H92.2204C92.359 36.9041 92.5084 36.7175 92.6684 36.5468C92.8284 36.3761 93.0044 36.2321 93.1964 36.1148C93.399 35.9975 93.6284 35.9068 93.8844 35.8428C94.1404 35.7681 94.4337 35.7308 94.7644 35.7308C95.2657 35.7308 95.7297 35.8428 96.1564 36.0668C96.5937 36.2908 96.903 36.6375 97.0844 37.1068C97.3937 36.6801 97.751 36.3441 98.1564 36.0988C98.5617 35.8535 99.0684 35.7308 99.6764 35.7308C100.551 35.7308 101.228 35.9441 101.708 36.3708C102.199 36.7975 102.444 37.5121 102.444 38.5148V44.2268H100.62V39.3948C100.62 39.0641 100.61 38.7655 100.588 38.4988C100.567 38.2215 100.503 37.9868 100.396 37.7948C100.3 37.5921 100.151 37.4375 99.9484 37.3308C99.7457 37.2241 99.4684 37.1708 99.1164 37.1708C98.4977 37.1708 98.0497 37.3628 97.7724 37.7468C97.495 38.1308 97.3564 38.6748 97.3564 39.3788V44.2268H95.5324V38.9148C95.5324 38.3388 95.4257 37.9068 95.2124 37.6188C95.0097 37.3201 94.631 37.1708 94.0764 37.1708C93.8417 37.1708 93.6124 37.2188 93.3884 37.3148C93.175 37.4108 92.983 37.5495 92.8124 37.7308C92.6524 37.9121 92.519 38.1361 92.4124 38.4028C92.3164 38.6695 92.2684 38.9735 92.2684 39.3148V44.2268H90.4444V35.9548Z" fill="#EAD40C"/>
</svg>
