<svg width="24" height="24" viewBox="0 0 24 24" fill="none" xmlns="http://www.w3.org/2000/svg">
<mask id="mask0_3701_1917" style="mask-type:alpha" maskUnits="userSpaceOnUse" x="0" y="0" width="24" height="24">
<rect width="24" height="24" transform="matrix(-1 0 0 1 24 0)" fill="#D9D9D9"/>
</mask>
<g mask="url(#mask0_3701_1917)">
<path d="M11.4 12L15.3 8.10005C15.4833 7.91672 15.575 7.68338 15.575 7.40005C15.575 7.11672 15.4833 6.88338 15.3 6.70005C15.1166 6.51672 14.8833 6.42505 14.6 6.42505C14.3166 6.42505 14.0833 6.51672 13.9 6.70005L9.29995 11.3C9.19995 11.4 9.12912 11.5084 9.08745 11.625C9.04578 11.7417 9.02495 11.8667 9.02495 12C9.02495 12.1334 9.04578 12.2584 9.08745 12.375C9.12912 12.4917 9.19995 12.6 9.29995 12.7L13.9 17.3C14.0833 17.4834 14.3166 17.575 14.6 17.575C14.8833 17.575 15.1166 17.4834 15.3 17.3C15.4833 17.1167 15.575 16.8834 15.575 16.6C15.575 16.3167 15.4833 16.0834 15.3 15.9L11.4 12Z" fill="#EAD40C"/>
</g>
</svg>
