<svg width="132" height="40" viewBox="0 0 132 40" fill="none" xmlns="http://www.w3.org/2000/svg">
<path d="M0.572266 4.36524C0.572266 1.95439 2.53398 0 4.95388 0H126.763C129.183 0 131.144 1.95439 131.144 4.36524V34.922C131.144 37.3328 129.183 39.2872 126.763 39.2872H4.95388C2.53398 39.2872 0.572266 37.3328 0.572266 34.922V4.36524Z" fill="black"/>
<path fill-rule="evenodd" clip-rule="evenodd" d="M126.763 0.873049H4.95388C3.01796 0.873049 1.44859 2.43656 1.44859 4.36524V34.922C1.44859 36.8506 3.01796 38.4142 4.95388 38.4142H126.763C128.699 38.4142 130.268 36.8506 130.268 34.922V4.36524C130.268 2.43656 128.699 0.873049 126.763 0.873049ZM4.95388 0C2.53398 0 0.572266 1.95439 0.572266 4.36524V34.922C0.572266 37.3328 2.53398 39.2872 4.95388 39.2872H126.763C129.183 39.2872 131.144 37.3328 131.144 34.922V4.36524C131.144 1.95439 129.183 0 126.763 0H4.95388Z" fill="white"/>
<path d="M43.3259 13.7662V9.24414H46.9706V9.77778H43.993V11.1628H46.7815V11.6933H43.993V13.2326H47.0875V13.7662H43.3259Z" fill="white"/>
<path d="M47.5173 13.7662L48.8514 12.0635L47.617 10.4903H48.3907L48.9511 11.2584C49.0566 11.4044 49.1414 11.5268 49.2056 11.6255C49.3064 11.4898 49.3993 11.3695 49.4841 11.2646L50.0995 10.4903H50.8388L49.5769 12.0327L50.9351 13.7662H50.1752L49.4256 12.7483L49.2262 12.4738L48.2669 13.7662H47.5173Z" fill="white"/>
<path d="M51.4508 15.0217V10.4903H52.0147V10.916C52.1477 10.7494 52.2978 10.625 52.4652 10.5428C52.6325 10.4585 52.8354 10.4163 53.0738 10.4163C53.3855 10.4163 53.6606 10.4883 53.899 10.6322C54.1374 10.7762 54.3173 10.9798 54.4388 11.243C54.5603 11.5042 54.621 11.791 54.621 12.1036C54.621 12.4388 54.5534 12.7411 54.4182 13.0105C54.2852 13.2778 54.0904 13.4835 53.8336 13.6274C53.5792 13.7693 53.311 13.8403 53.0291 13.8403C52.8227 13.8403 52.6371 13.8012 52.472 13.723C52.3093 13.6449 52.1752 13.5462 52.0697 13.4269V15.0217H51.4508ZM52.0113 12.1468C52.0113 12.5684 52.1064 12.8799 52.2967 13.0814C52.4869 13.283 52.7173 13.3837 52.9878 13.3837C53.2629 13.3837 53.4978 13.2799 53.6927 13.0722C53.8898 12.8624 53.9884 12.5385 53.9884 12.1005C53.9884 11.6831 53.8921 11.3705 53.6995 11.1628C53.5093 10.9551 53.2812 10.8512 53.0153 10.8512C52.7517 10.8512 52.5179 10.9623 52.3139 11.1844C52.1122 11.4044 52.0113 11.7252 52.0113 12.1468Z" fill="white"/>
<path d="M55.3568 13.7662V9.24414H55.9757V13.7662H55.3568Z" fill="white"/>
<path d="M56.7081 12.1283C56.7081 11.5216 56.8961 11.0723 57.272 10.7803C57.5861 10.5376 57.9689 10.4163 58.4204 10.4163C58.9224 10.4163 59.3328 10.5644 59.6514 10.8605C59.97 11.1546 60.1293 11.5617 60.1293 12.082C60.1293 12.5036 60.0583 12.8357 59.9161 13.0783C59.7763 13.3189 59.5712 13.5061 59.3007 13.6398C59.0325 13.7734 58.7391 13.8403 58.4204 13.8403C57.9093 13.8403 57.4955 13.6932 57.1792 13.3991C56.8651 13.1051 56.7081 12.6815 56.7081 12.1283ZM57.3442 12.1283C57.3442 12.5478 57.4462 12.8624 57.6502 13.0722C57.8543 13.2799 58.111 13.3837 58.4204 13.3837C58.7276 13.3837 58.9832 13.2788 59.1872 13.0691C59.3912 12.8593 59.4932 12.5396 59.4932 12.1098C59.4932 11.7047 59.3901 11.3982 59.1838 11.1905C58.9798 10.9808 58.7253 10.8759 58.4204 10.8759C58.111 10.8759 57.8543 10.9798 57.6502 11.1875C57.4462 11.3952 57.3442 11.7088 57.3442 12.1283Z" fill="white"/>
<path d="M60.8514 13.7662V10.4903H61.4084V10.987C61.5505 10.7546 61.6812 10.6014 61.8004 10.5274C61.9219 10.4533 62.0548 10.4163 62.1992 10.4163C62.4078 10.4163 62.6199 10.4759 62.8353 10.5952L62.6221 11.1103C62.4709 11.0301 62.3196 10.99 62.1683 10.99C62.033 10.99 61.9116 11.0271 61.8038 11.1011C61.6961 11.1731 61.6193 11.2738 61.5734 11.4034C61.5047 11.6008 61.4703 11.8167 61.4703 12.0512V13.7662H60.8514Z" fill="white"/>
<path d="M65.7029 12.7113L66.3425 12.7822C66.2416 13.1174 66.0548 13.3776 65.782 13.5626C65.5092 13.7477 65.1608 13.8403 64.7368 13.8403C64.2027 13.8403 63.7786 13.6932 63.4646 13.3991C63.1528 13.103 62.9969 12.6887 62.9969 12.156C62.9969 11.6049 63.1551 11.1772 63.4714 10.8728C63.7878 10.5685 64.1981 10.4163 64.7024 10.4163C65.1906 10.4163 65.5895 10.5654 65.8989 10.8636C66.2084 11.1618 66.3631 11.5813 66.3631 12.1221C66.3631 12.155 66.362 12.2044 66.3597 12.2702H63.6365C63.6594 12.63 63.7729 12.9056 63.9769 13.0969C64.1809 13.2881 64.4353 13.3837 64.7402 13.3837C64.9671 13.3837 65.1608 13.3303 65.3213 13.2233C65.4817 13.1164 65.609 12.9457 65.7029 12.7113ZM63.6709 11.8136H65.7098C65.6823 11.5381 65.6044 11.3314 65.476 11.1936C65.2789 10.9798 65.0233 10.8728 64.7092 10.8728C64.425 10.8728 64.1855 10.9582 63.9906 11.1289C63.7981 11.2995 63.6915 11.5278 63.6709 11.8136Z" fill="white"/>
<path d="M69.0863 9.88266V9.24414H69.7052V9.88266H69.0863ZM69.0863 13.7662V10.4903H69.7052V13.7662H69.0863Z" fill="white"/>
<path d="M72.0021 13.2696L72.0915 13.7601C71.9173 13.793 71.7614 13.8094 71.6238 13.8094C71.3992 13.8094 71.225 13.7775 71.1012 13.7138C70.9774 13.65 70.8903 13.5667 70.8399 13.4639C70.7895 13.359 70.7642 13.14 70.7642 12.8069V10.9222H70.3104V10.4903H70.7642V9.67907L71.3797 9.34593V10.4903H72.0021V10.9222H71.3797V12.8377C71.3797 12.9961 71.39 13.0979 71.4107 13.1431C71.4336 13.1884 71.4691 13.2244 71.5173 13.2511C71.5677 13.2778 71.6387 13.2912 71.7304 13.2912C71.7992 13.2912 71.8897 13.284 72.0021 13.2696Z" fill="white"/>
<path d="M74.3402 12.1283C74.3402 11.5216 74.5281 11.0723 74.9041 10.7803C75.2181 10.5376 75.6009 10.4163 76.0525 10.4163C76.5545 10.4163 76.9648 10.5644 77.2834 10.8605C77.6021 11.1546 77.7614 11.5617 77.7614 12.082C77.7614 12.5036 77.6903 12.8357 77.5482 13.0783C77.4084 13.3189 77.2032 13.5061 76.9327 13.6398C76.6645 13.7734 76.3711 13.8403 76.0525 13.8403C75.5413 13.8403 75.1276 13.6932 74.8112 13.3991C74.4972 13.1051 74.3402 12.6815 74.3402 12.1283ZM74.9763 12.1283C74.9763 12.5478 75.0783 12.8624 75.2823 13.0722C75.4863 13.2799 75.743 13.3837 76.0525 13.3837C76.3596 13.3837 76.6152 13.2788 76.8192 13.0691C77.0233 12.8593 77.1253 12.5396 77.1253 12.1098C77.1253 11.7047 77.0221 11.3982 76.8158 11.1905C76.6118 10.9808 76.3574 10.8759 76.0525 10.8759C75.743 10.8759 75.4863 10.9798 75.2823 11.1875C75.0783 11.3952 74.9763 11.7088 74.9763 12.1283Z" fill="white"/>
<path d="M78.4903 13.7662V10.4903H79.0473V10.9561C79.3155 10.5962 79.7029 10.4163 80.2095 10.4163C80.4296 10.4163 80.6313 10.4523 80.8146 10.5243C81.0003 10.5942 81.139 10.6867 81.2307 10.8019C81.3224 10.917 81.3866 11.0538 81.4232 11.2121C81.4462 11.315 81.4576 11.4949 81.4576 11.752V13.7662H80.8387V11.7735C80.8387 11.5473 80.8146 11.3787 80.7665 11.2677C80.7184 11.1546 80.6324 11.0651 80.5086 10.9993C80.3871 10.9314 80.2439 10.8975 80.0788 10.8975C79.8152 10.8975 79.5871 10.9726 79.3946 11.1227C79.2043 11.2728 79.1092 11.5576 79.1092 11.9771V13.7662H78.4903Z" fill="white"/>
<path d="M50.5166 29.1166H52.0814L47.956 17.8163H46.2963L42.1709 29.1166H43.7357L44.6367 26.5821H49.6156L50.5166 29.1166ZM45.1425 25.1776L47.1182 19.6082L49.1098 25.1776H45.1425Z" fill="white"/>
<path d="M57.6069 20.8351C56.2634 20.8351 55.2518 21.4485 54.6195 22.4333V21.045H53.2444V32.3452H54.6195V27.7283C55.2518 28.713 56.2634 29.3264 57.6069 29.3264C59.8039 29.3264 61.6058 27.47 61.6058 25.0808C61.6058 22.6916 59.8039 20.8351 57.6069 20.8351ZM57.433 27.9704C55.8366 27.9704 54.6195 26.7274 54.6195 25.0808C54.6195 23.4342 55.8366 22.1911 57.433 22.1911C59.0136 22.1911 60.2307 23.4342 60.2307 25.0808C60.2307 26.7274 59.0136 27.9704 57.433 27.9704Z" fill="white"/>
<path d="M67.6092 20.8351C66.2657 20.8351 65.2541 21.4485 64.6219 22.4333V21.045H63.2467V32.3452H64.6219V27.7283C65.2541 28.713 66.2657 29.3264 67.6092 29.3264C69.8063 29.3264 71.6082 27.47 71.6082 25.0808C71.6082 22.6916 69.8063 20.8351 67.6092 20.8351ZM67.4354 27.9704C65.8389 27.9704 64.6219 26.7274 64.6219 25.0808C64.6219 23.4342 65.8389 22.1911 67.4354 22.1911C69.016 22.1911 70.2331 23.4342 70.2331 25.0808C70.2331 26.7274 69.016 27.9704 67.4354 27.9704Z" fill="white"/>
<path d="M84.0605 23.5149H78.5283V24.8709H82.5905C82.306 26.5659 80.9467 27.8574 78.6548 27.8574C76.0152 27.8574 74.2607 25.9202 74.2607 23.4664C74.2607 20.9965 76.031 19.0594 78.5916 19.0594C80.1564 19.0594 81.4999 19.8827 82.1322 21.0934L83.3967 20.3347C82.4799 18.7203 80.678 17.6065 78.6074 17.6065C75.2407 17.6065 72.8065 20.2217 72.8065 23.4664C72.8065 26.6951 75.2249 29.3264 78.639 29.3264C81.9741 29.3264 84.0605 27.0664 84.0605 24.1929V23.5149Z" fill="white"/>
<path d="M92.2495 21.045V22.4333C91.6172 21.4485 90.6056 20.8351 89.2621 20.8351C87.065 20.8351 85.2631 22.6916 85.2631 25.0808C85.2631 27.47 87.065 29.3264 89.2621 29.3264C90.6056 29.3264 91.6172 28.713 92.2495 27.7283V29.1166H93.6246V21.045H92.2495ZM89.436 27.9704C87.8554 27.9704 86.6383 26.7274 86.6383 25.0808C86.6383 23.4342 87.8554 22.1911 89.436 22.1911C91.0324 22.1911 92.2495 23.4342 92.2495 25.0808C92.2495 26.7274 91.0324 27.9704 89.436 27.9704Z" fill="white"/>
<path d="M95.7081 29.1166H97.0832V17.332H95.7081V29.1166Z" fill="white"/>
<path d="M99.1811 29.1166H100.556V17.332H99.1811V29.1166Z" fill="white"/>
<path d="M103.618 25.7265H110.241C110.273 25.5166 110.289 25.3068 110.289 25.0969C110.289 22.8369 108.74 20.8351 106.353 20.8351C103.887 20.8351 102.212 22.6916 102.212 25.0808C102.212 27.5022 103.903 29.3264 106.448 29.3264C108.028 29.3264 109.23 28.6 109.925 27.5022L108.755 26.8242C108.36 27.4861 107.57 28.0027 106.479 28.0027C105.009 28.0027 103.887 27.1794 103.618 25.7265ZM106.353 22.1588C107.538 22.1588 108.661 22.9014 108.898 24.4996H103.618C103.84 23.0952 104.867 22.1588 106.353 22.1588Z" fill="white"/>
<path d="M113.244 22.401V21.045H111.869V29.1166H113.244V24.8386C113.244 22.9337 114.525 22.3203 115.71 22.3687V20.8997C114.714 20.8997 113.75 21.271 113.244 22.401Z" fill="white"/>
<path d="M122.742 21.045L120.466 27.3731L117.779 21.045H116.309L119.754 29.0843L119.612 29.391C119.201 30.4565 118.537 31.1183 117.478 31.0376V32.3452C119.091 32.4582 120.324 31.425 120.987 29.617L124.212 21.045H122.742Z" fill="white"/>
<path fill-rule="evenodd" clip-rule="evenodd" d="M30.5197 6.3418H18.0994C14.5636 6.3418 11.6709 9.23454 11.6709 12.7702V25.1906C11.6709 28.7262 14.5636 31.619 18.0994 31.619H30.5197C34.0553 31.619 36.9481 28.7262 36.9481 25.1906V12.7702C36.9481 9.23454 34.0553 6.3418 30.5197 6.3418ZM17.0261 22.2746C17.1801 22.2799 17.2279 22.2215 17.2279 22.0674C17.2216 21.7807 17.2209 21.494 17.2203 21.2084C17.2199 21.0178 17.2194 20.8277 17.2173 20.6385C17.2173 20.5043 17.2179 20.3696 17.2185 20.2344C17.2197 19.9629 17.2209 19.6898 17.2173 19.4168C17.2147 19.1797 17.2329 19.0771 17.1905 19.0327C17.1473 18.9876 17.0414 19.0025 16.787 18.9971C16.6542 18.9918 16.6064 19.0396 16.6064 19.1724C16.6091 19.3371 16.6091 19.5004 16.6091 19.6638C16.6091 19.8271 16.6091 19.9905 16.6118 20.1551C16.6171 20.2932 16.5693 20.3517 16.4258 20.3517C16.0221 20.3464 15.6237 20.3464 15.22 20.3517C15.0713 20.3517 15.0235 20.2826 15.0288 20.1445C15.0323 19.9749 15.0312 19.8053 15.03 19.6342C15.0294 19.548 15.0288 19.4614 15.0288 19.3743C15.0261 19.1608 15.0409 19.0666 15.001 19.0258C14.9615 18.9853 14.8684 18.9971 14.6517 18.9971C14.4232 18.9971 14.4232 19.0024 14.4232 19.2362C14.4232 19.5285 14.4226 19.8203 14.4221 20.1118C14.4209 20.6944 14.4197 21.2761 14.4232 21.8603C14.4259 22.0975 14.4063 22.2 14.4482 22.2444C14.4907 22.2894 14.5966 22.2745 14.8535 22.2799C14.9863 22.2799 15.0341 22.2321 15.0341 22.0993C15.0315 21.932 15.0315 21.766 15.0315 21.6C15.0315 21.434 15.0315 21.268 15.0288 21.1006C15.0288 20.9678 15.0766 20.8988 15.2147 20.8988H16.4365C16.5639 20.8988 16.6171 20.9572 16.6171 21.0847C16.6135 21.2584 16.6147 21.4345 16.6159 21.6098C16.6165 21.6972 16.6171 21.7843 16.6171 21.8709C16.6197 22.0927 16.6053 22.1911 16.6476 22.2353C16.6903 22.28 16.791 22.2692 17.0261 22.2746ZM21.0578 20.1286H21.0632C21.0632 20.0615 21.0629 19.9945 21.0627 19.9278C21.0619 19.6616 21.061 19.3975 21.0738 19.1299C21.0791 19.0343 21.0472 18.9918 20.9516 18.9918C20.84 18.9971 20.7338 18.9971 20.6276 18.9918C20.5054 18.9812 20.4735 19.029 20.4735 19.1512C20.4788 19.7089 20.4788 20.2667 20.4735 20.8244C20.4682 21.1644 20.4098 21.499 20.0486 21.6584C19.4908 21.9027 18.8906 21.584 18.8959 20.9413C18.9012 20.4314 18.9012 19.9214 18.8959 19.4115C18.8932 19.1742 18.9129 19.0717 18.8709 19.0273C18.8284 18.9823 18.7225 18.9972 18.4656 18.9918C18.3328 18.9865 18.285 19.0343 18.285 19.1671C18.2873 19.4449 18.2866 19.7227 18.286 20.0006C18.2851 20.3708 18.2843 20.741 18.2903 21.1113C18.2956 21.4194 18.4125 21.6956 18.6303 21.924C19.0712 22.3808 19.6289 22.3437 20.1654 22.2321C20.7232 22.1205 21.0472 21.6371 21.0578 21.0635C21.0614 20.8547 21.0602 20.6483 21.059 20.4412C21.0584 20.3373 21.0578 20.2332 21.0578 20.1286ZM34.1954 21.1652C34.1966 20.5862 34.1978 20.008 34.1942 19.4274C34.1916 19.1788 34.2148 19.0707 34.1716 19.0244C34.1272 18.9767 34.0124 18.9945 33.7268 18.9918H33.6949C33.6205 18.9918 33.5993 19.029 33.5993 19.1034V20.6173H33.6099V21.8762C33.6099 22.0647 33.6099 22.159 33.657 22.2055C33.7042 22.252 33.7985 22.2507 33.987 22.248C34.1836 22.248 34.1942 22.2374 34.1942 22.0355C34.1942 21.745 34.1948 21.455 34.1954 21.1652ZM30.4918 22.248C31.177 22.2427 31.8676 22.2427 32.5528 22.248C32.7069 22.248 32.7653 22.1896 32.7494 22.0409V21.9612C32.7494 21.7328 32.7494 21.7275 32.5156 21.7275H31.1452C30.9433 21.7275 30.9114 21.7009 30.9114 21.4937C30.9114 21.4426 30.912 21.3908 30.9126 21.3389C30.9138 21.2344 30.915 21.1292 30.9114 21.0263C30.9061 20.8829 30.9593 20.8191 31.108 20.8244C31.2955 20.828 31.4806 20.8268 31.6665 20.8256C31.7598 20.825 31.8532 20.8244 31.9473 20.8244C32.1438 20.8244 32.1438 20.8244 32.1385 20.6173C32.1385 20.604 32.1382 20.5907 32.1378 20.5774C32.1368 20.5376 32.1358 20.4977 32.1438 20.4579C32.1757 20.3145 32.1066 20.2826 31.9791 20.2826C31.7916 20.2862 31.6065 20.285 31.4206 20.2838C31.3273 20.2832 31.2339 20.2826 31.1399 20.2826C30.9274 20.2826 30.9114 20.2667 30.9114 20.0489C30.9114 20.0131 30.912 19.9779 30.9126 19.943C30.9138 19.8746 30.915 19.8077 30.9114 19.7408C30.9008 19.5921 30.9646 19.5283 31.1186 19.5336C31.384 19.5372 31.6518 19.536 31.9203 19.5348C32.0549 19.5342 32.1896 19.5336 32.3244 19.5336C32.5205 19.5336 32.6096 19.5469 32.6502 19.5086C32.691 19.4703 32.683 19.38 32.6856 19.1724C32.6856 19.029 32.6325 18.9865 32.4944 18.9865C31.8304 18.9918 31.1611 18.9918 30.4971 18.9865C30.3378 18.9865 30.3006 19.0449 30.3006 19.1937C30.3085 19.5483 30.3075 19.9029 30.3065 20.2575C30.3062 20.3756 30.3059 20.4938 30.3059 20.6119C30.3059 20.7731 30.3065 20.9342 30.3071 21.0953C30.3082 21.4176 30.3094 21.7398 30.3059 22.0621C30.3006 22.2055 30.3537 22.248 30.4918 22.248ZM29.0797 20.5931C29.2461 20.1093 29.4122 19.6263 29.5835 19.1459C29.626 19.029 29.5941 18.9865 29.4825 19.0024C29.371 19.0077 29.2648 19.0077 29.1585 19.0024C29.0523 18.9918 28.9939 19.0449 28.962 19.1459L28.3405 21.0741C28.3385 21.0801 28.3366 21.0864 28.3346 21.0927C28.321 21.137 28.3059 21.1863 28.2502 21.1909C28.192 21.1951 28.1826 21.1505 28.1736 21.108C28.1711 21.0962 28.1687 21.0845 28.1652 21.0741C28.0997 20.8777 28.0348 20.6813 27.97 20.4849C27.8401 20.0917 27.7102 19.6984 27.5756 19.3052C27.4604 18.9755 27.4536 18.9758 27.1129 18.9911L27.0975 18.9918C26.9966 18.9971 26.9488 19.0396 26.9169 19.1352C26.8106 19.4619 26.7031 19.7873 26.5955 20.1126C26.4879 20.438 26.3804 20.7633 26.2741 21.09L26.2728 21.0941C26.2572 21.1408 26.2406 21.1909 26.1838 21.1909C26.1259 21.1909 26.1118 21.1471 26.0978 21.1032C26.0964 21.0988 26.095 21.0944 26.0935 21.09L26.0915 21.0837C25.8903 20.4537 25.6892 19.8237 25.4933 19.1884C25.4508 19.0502 25.387 18.9653 25.233 18.9918C25.2047 18.9954 25.1763 18.9942 25.148 18.993C25.1338 18.9924 25.1197 18.9918 25.1055 18.9918H24.9143C24.8187 18.9865 24.7656 19.0131 24.8187 19.1193C24.8298 19.1378 24.8357 19.1588 24.8419 19.1806C24.8446 19.1902 24.8473 19.1999 24.8505 19.2096C25.0102 19.6673 25.1712 20.1264 25.3322 20.5854C25.4926 21.0427 25.653 21.4999 25.812 21.9559C25.9058 22.2321 25.9076 22.2322 26.1987 22.2421L26.2157 22.2427C26.3804 22.248 26.4494 22.1896 26.5025 22.0355C26.6427 21.6076 26.7909 21.1823 26.9396 20.7559C26.9994 20.5842 27.0593 20.4124 27.1187 20.2401C27.1211 20.233 27.1232 20.2256 27.1254 20.2181C27.1378 20.1748 27.151 20.1286 27.2143 20.1286C27.2675 20.1286 27.2887 20.1711 27.2993 20.2136C27.422 20.6277 27.5669 21.0362 27.7119 21.4453C27.7678 21.6029 27.8237 21.7606 27.8783 21.9187C27.9415 22.103 27.9538 22.1816 27.9993 22.2153C28.0456 22.2496 28.1263 22.2374 28.3298 22.2427C28.468 22.2427 28.5317 22.1896 28.5742 22.0621C28.6645 21.7806 28.7654 21.4937 28.8664 21.2122C28.9378 21.0058 29.0088 20.7994 29.0797 20.5931ZM24.3095 14.6183C26.6988 14.6183 28.6357 12.6814 28.6357 10.2921H28.0765C28.0765 12.3726 26.39 14.0591 24.3095 14.0591C22.229 14.0591 20.5425 12.3726 20.5425 10.2921H19.9833C19.9833 12.6814 21.9202 14.6183 24.3095 14.6183ZM24.6119 21.5317C24.695 21.7174 24.7781 21.9031 24.8607 22.0887C24.9192 22.2162 24.8873 22.2534 24.7545 22.2428H24.5952C24.5458 22.2419 24.5049 22.243 24.4704 22.2439C24.2895 22.2485 24.2845 22.2487 24.1596 21.9453C24.0585 21.7031 24.0307 21.6023 23.9653 21.5613C23.9002 21.5204 23.7979 21.5389 23.5487 21.5363C23.444 21.5363 23.34 21.5369 23.2361 21.5375C23.0289 21.5386 22.8225 21.5398 22.6138 21.5363C22.4863 21.5363 22.4013 21.5841 22.3535 21.7063C22.3181 21.7983 22.278 21.8904 22.2379 21.9825C22.2178 22.0285 22.1977 22.0746 22.1782 22.1206C22.1744 22.1292 22.1707 22.1385 22.167 22.148C22.15 22.1912 22.1315 22.2384 22.0879 22.2428C21.9126 22.2534 21.7373 22.264 21.562 22.2481C21.4999 22.2437 21.5267 22.1911 21.5465 22.1522C21.5505 22.1445 21.5541 22.1374 21.5567 22.1312C21.6442 21.9323 21.7318 21.7347 21.8193 21.5372C21.9071 21.339 21.9948 21.1408 22.0826 20.9414C22.1393 20.8129 22.1963 20.6843 22.2533 20.5554C22.4581 20.0926 22.664 19.6272 22.8635 19.1619C22.9113 19.0397 22.9856 19.0025 23.1131 18.9866C23.3947 18.9547 23.5381 19.045 23.6496 19.3212C23.9548 20.063 24.2837 20.798 24.6119 21.5317ZM23.1981 21.0157H23.5859C23.7187 21.0157 23.7506 20.9467 23.6974 20.8351C23.6311 20.6838 23.5647 20.5311 23.4983 20.3784C23.4319 20.2256 23.3655 20.0729 23.299 19.9215C23.2831 19.8843 23.2565 19.8471 23.2087 19.8418C23.1556 19.8365 23.1344 19.8843 23.1184 19.9215C22.9803 20.2296 22.8475 20.5377 22.7147 20.8511C22.6669 20.9573 22.7094 21.0157 22.8263 21.0157H23.1981Z" fill="#FEFEFE"/>
</svg>
