<svg width="100" height="56" viewBox="0 0 100 56" fill="none" xmlns="http://www.w3.org/2000/svg">
<rect width="100" height="56" rx="8" fill="#193B41"/>
<mask id="mask0_1536_3581" style="mask-type:alpha" maskUnits="userSpaceOnUse" x="16" y="16" width="24" height="24">
<rect x="16" y="16" width="24" height="24" fill="#D9D9D9"/>
</mask>
<g mask="url(#mask0_1536_3581)">
<path d="M35.95 37C33.8667 37 31.8083 36.5458 29.775 35.6375C27.7417 34.7292 25.8917 33.4417 24.225 31.775C22.5583 30.1083 21.2708 28.2583 20.3625 26.225C19.4542 24.1917 19 22.1333 19 20.05C19 19.75 19.1 19.5 19.3 19.3C19.5 19.1 19.75 19 20.05 19H24.1C24.3333 19 24.5417 19.0792 24.725 19.2375C24.9083 19.3958 25.0167 19.5833 25.05 19.8L25.7 23.3C25.7333 23.5667 25.725 23.7917 25.675 23.975C25.625 24.1583 25.5333 24.3167 25.4 24.45L22.975 26.9C23.3083 27.5167 23.7042 28.1125 24.1625 28.6875C24.6208 29.2625 25.125 29.8167 25.675 30.35C26.1917 30.8667 26.7333 31.3458 27.3 31.7875C27.8667 32.2292 28.4667 32.6333 29.1 33L31.45 30.65C31.6 30.5 31.7958 30.3875 32.0375 30.3125C32.2792 30.2375 32.5167 30.2167 32.75 30.25L36.2 30.95C36.4333 31.0167 36.625 31.1375 36.775 31.3125C36.925 31.4875 37 31.6833 37 31.9V35.95C37 36.25 36.9 36.5 36.7 36.7C36.5 36.9 36.25 37 35.95 37Z" fill="#0CDCEA"/>
</g>
<path d="M50.576 31.168C50.6187 31.6267 50.7787 32 51.056 32.288C51.344 32.5653 51.728 32.704 52.208 32.704C52.6987 32.704 53.088 32.576 53.376 32.32C53.6747 32.0533 53.904 31.728 54.064 31.344C54.224 30.9493 54.3307 30.5333 54.384 30.096C54.448 29.648 54.496 29.2373 54.528 28.864L54.496 28.832C54.2507 29.2693 53.9147 29.6053 53.488 29.84C53.0613 30.064 52.592 30.176 52.08 30.176C51.5467 30.176 51.0613 30.0853 50.624 29.904C50.1973 29.7227 49.8293 29.472 49.52 29.152C49.2107 28.8213 48.9707 28.4267 48.8 27.968C48.6293 27.4987 48.544 26.976 48.544 26.4C48.544 25.856 48.6293 25.3547 48.8 24.896C48.9707 24.4267 49.2213 24.0213 49.552 23.68C49.8827 23.328 50.288 23.056 50.768 22.864C51.248 22.672 51.792 22.576 52.4 22.576C53.1893 22.576 53.84 22.7307 54.352 23.04C54.864 23.3387 55.264 23.7547 55.552 24.288C55.8507 24.8107 56.0587 25.4293 56.176 26.144C56.2933 26.8587 56.352 27.6213 56.352 28.432C56.352 29.104 56.2773 29.7813 56.128 30.464C55.9893 31.1467 55.7547 31.7707 55.424 32.336C55.0933 32.8907 54.656 33.344 54.112 33.696C53.5787 34.048 52.9173 34.224 52.128 34.224C51.68 34.224 51.2587 34.1493 50.864 34C50.4693 33.8507 50.1173 33.6427 49.808 33.376C49.5093 33.1093 49.264 32.7893 49.072 32.416C48.88 32.0427 48.7733 31.6267 48.752 31.168H50.576ZM52.32 24.096C51.9893 24.096 51.7013 24.16 51.456 24.288C51.2107 24.4053 51.008 24.5707 50.848 24.784C50.688 24.9973 50.5653 25.2427 50.48 25.52C50.4053 25.7973 50.368 26.0853 50.368 26.384C50.368 26.6933 50.4053 26.992 50.48 27.28C50.5653 27.5573 50.688 27.8027 50.848 28.016C51.008 28.2293 51.2107 28.4053 51.456 28.544C51.7013 28.672 51.9893 28.736 52.32 28.736C52.6613 28.736 52.96 28.672 53.216 28.544C53.472 28.416 53.68 28.2453 53.84 28.032C54.0107 27.808 54.1387 27.5573 54.224 27.28C54.3093 26.992 54.352 26.6933 54.352 26.384C54.352 26.0853 54.3093 25.7973 54.224 25.52C54.1387 25.2427 54.0107 25.0027 53.84 24.8C53.68 24.5867 53.472 24.416 53.216 24.288C52.96 24.16 52.6613 24.096 52.32 24.096ZM59.4666 31.168C59.5093 31.6267 59.6693 32 59.9466 32.288C60.2346 32.5653 60.6186 32.704 61.0986 32.704C61.5893 32.704 61.9786 32.576 62.2666 32.32C62.5653 32.0533 62.7946 31.728 62.9546 31.344C63.1146 30.9493 63.2213 30.5333 63.2746 30.096C63.3386 29.648 63.3866 29.2373 63.4186 28.864L63.3866 28.832C63.1413 29.2693 62.8053 29.6053 62.3786 29.84C61.952 30.064 61.4826 30.176 60.9706 30.176C60.4373 30.176 59.952 30.0853 59.5146 29.904C59.088 29.7227 58.72 29.472 58.4106 29.152C58.1013 28.8213 57.8613 28.4267 57.6906 27.968C57.52 27.4987 57.4346 26.976 57.4346 26.4C57.4346 25.856 57.52 25.3547 57.6906 24.896C57.8613 24.4267 58.112 24.0213 58.4426 23.68C58.7733 23.328 59.1786 23.056 59.6586 22.864C60.1386 22.672 60.6826 22.576 61.2906 22.576C62.08 22.576 62.7306 22.7307 63.2426 23.04C63.7546 23.3387 64.1546 23.7547 64.4426 24.288C64.7413 24.8107 64.9493 25.4293 65.0666 26.144C65.184 26.8587 65.2426 27.6213 65.2426 28.432C65.2426 29.104 65.168 29.7813 65.0186 30.464C64.88 31.1467 64.6453 31.7707 64.3146 32.336C63.984 32.8907 63.5466 33.344 63.0026 33.696C62.4693 34.048 61.808 34.224 61.0186 34.224C60.5706 34.224 60.1493 34.1493 59.7546 34C59.36 33.8507 59.008 33.6427 58.6986 33.376C58.4 33.1093 58.1546 32.7893 57.9626 32.416C57.7706 32.0427 57.664 31.6267 57.6426 31.168H59.4666ZM61.2106 24.096C60.88 24.096 60.592 24.16 60.3466 24.288C60.1013 24.4053 59.8986 24.5707 59.7386 24.784C59.5786 24.9973 59.456 25.2427 59.3706 25.52C59.296 25.7973 59.2586 26.0853 59.2586 26.384C59.2586 26.6933 59.296 26.992 59.3706 27.28C59.456 27.5573 59.5786 27.8027 59.7386 28.016C59.8986 28.2293 60.1013 28.4053 60.3466 28.544C60.592 28.672 60.88 28.736 61.2106 28.736C61.552 28.736 61.8506 28.672 62.1066 28.544C62.3626 28.416 62.5706 28.2453 62.7306 28.032C62.9013 27.808 63.0293 27.5573 63.1146 27.28C63.2 26.992 63.2426 26.6933 63.2426 26.384C63.2426 26.0853 63.2 25.7973 63.1146 25.52C63.0293 25.2427 62.9013 25.0027 62.7306 24.8C62.5706 24.5867 62.3626 24.416 62.1066 24.288C61.8506 24.16 61.552 24.096 61.2106 24.096ZM69.4293 27.44C69.7279 27.4507 70.0266 27.4293 70.3253 27.376C70.6239 27.3227 70.8906 27.232 71.1253 27.104C71.3599 26.9653 71.5466 26.7787 71.6853 26.544C71.8346 26.3093 71.9093 26.0213 71.9093 25.68C71.9093 25.2 71.7439 24.816 71.4133 24.528C71.0933 24.24 70.6773 24.096 70.1653 24.096C69.8453 24.096 69.5679 24.16 69.3333 24.288C69.0986 24.416 68.9013 24.592 68.7413 24.816C68.5919 25.0293 68.4799 25.2747 68.4053 25.552C68.3306 25.8187 68.2986 26.096 68.3093 26.384H66.4853C66.5066 25.84 66.6079 25.3387 66.7893 24.88C66.9706 24.4107 67.2159 24.0053 67.5253 23.664C67.8453 23.3227 68.2293 23.056 68.6773 22.864C69.1253 22.672 69.6319 22.576 70.1973 22.576C70.6346 22.576 71.0613 22.64 71.4773 22.768C71.9039 22.896 72.2826 23.0827 72.6133 23.328C72.9546 23.5733 73.2266 23.888 73.4293 24.272C73.6319 24.6453 73.7333 25.0773 73.7333 25.568C73.7333 26.1333 73.6053 26.6293 73.3493 27.056C73.0933 27.472 72.6933 27.776 72.1493 27.968V28C72.7893 28.128 73.2853 28.448 73.6373 28.96C73.9999 29.4613 74.1813 30.0747 74.1813 30.8C74.1813 31.3333 74.0746 31.8133 73.8612 32.24C73.6479 32.656 73.3599 33.0133 72.9973 33.312C72.6346 33.6 72.2133 33.824 71.7333 33.984C71.2533 34.144 70.7466 34.224 70.2133 34.224C69.5626 34.224 68.9919 34.1333 68.5013 33.952C68.0213 33.76 67.6159 33.4933 67.2853 33.152C66.9653 32.8107 66.7199 32.4 66.5493 31.92C66.3786 31.44 66.2879 30.9067 66.2773 30.32H68.1013C68.0799 31.0027 68.2453 31.5733 68.5973 32.032C68.9599 32.48 69.4986 32.704 70.2133 32.704C70.8213 32.704 71.3279 32.5333 71.7333 32.192C72.1493 31.84 72.3573 31.344 72.3573 30.704C72.3573 30.2667 72.2719 29.92 72.1013 29.664C71.9306 29.408 71.7066 29.216 71.4293 29.088C71.1519 28.9493 70.8373 28.864 70.4852 28.832C70.1439 28.8 69.7919 28.7893 69.4293 28.8V27.44ZM78.3199 27.44C78.6185 27.4507 78.9172 27.4293 79.2159 27.376C79.5145 27.3227 79.7812 27.232 80.0159 27.104C80.2505 26.9653 80.4372 26.7787 80.5759 26.544C80.7252 26.3093 80.7999 26.0213 80.7999 25.68C80.7999 25.2 80.6345 24.816 80.3039 24.528C79.9839 24.24 79.5679 24.096 79.0559 24.096C78.7359 24.096 78.4585 24.16 78.2239 24.288C77.9892 24.416 77.7919 24.592 77.6319 24.816C77.4825 25.0293 77.3705 25.2747 77.2959 25.552C77.2212 25.8187 77.1892 26.096 77.1999 26.384H75.3759C75.3972 25.84 75.4985 25.3387 75.6799 24.88C75.8612 24.4107 76.1065 24.0053 76.4159 23.664C76.7359 23.3227 77.1199 23.056 77.5679 22.864C78.0159 22.672 78.5225 22.576 79.0879 22.576C79.5252 22.576 79.9519 22.64 80.3679 22.768C80.7945 22.896 81.1732 23.0827 81.5039 23.328C81.8452 23.5733 82.1172 23.888 82.3199 24.272C82.5225 24.6453 82.6239 25.0773 82.6239 25.568C82.6239 26.1333 82.4959 26.6293 82.2399 27.056C81.9839 27.472 81.5839 27.776 81.0399 27.968V28C81.6799 28.128 82.1759 28.448 82.5279 28.96C82.8905 29.4613 83.0719 30.0747 83.0719 30.8C83.0719 31.3333 82.9652 31.8133 82.7519 32.24C82.5385 32.656 82.2505 33.0133 81.8879 33.312C81.5252 33.6 81.1039 33.824 80.6239 33.984C80.1439 34.144 79.6372 34.224 79.1039 34.224C78.4532 34.224 77.8825 34.1333 77.3919 33.952C76.9119 33.76 76.5065 33.4933 76.1759 33.152C75.8559 32.8107 75.6105 32.4 75.4399 31.92C75.2692 31.44 75.1785 30.9067 75.1679 30.32H76.9919C76.9705 31.0027 77.1359 31.5733 77.4879 32.032C77.8505 32.48 78.3892 32.704 79.1039 32.704C79.7119 32.704 80.2185 32.5333 80.6239 32.192C81.0399 31.84 81.2479 31.344 81.2479 30.704C81.2479 30.2667 81.1625 29.92 80.9919 29.664C80.8212 29.408 80.5972 29.216 80.3199 29.088C80.0425 28.9493 79.7279 28.864 79.3759 28.832C79.0345 28.8 78.6825 28.7893 78.3199 28.8V27.44Z" fill="#0CDCEA"/>
</svg>
