<svg width="40" height="40" viewBox="0 0 40 40" fill="none" xmlns="http://www.w3.org/2000/svg">
<rect x="40" y="40" width="40" height="40" rx="8" transform="rotate(180 40 40)" fill="#193B41"/>
<mask id="mask0_1465_847" style="mask-type:alpha" maskUnits="userSpaceOnUse" x="8" y="8" width="24" height="24">
<rect x="8" y="8" width="24" height="24" fill="#D9D9D9"/>
</mask>
<g mask="url(#mask0_1465_847)">
<path d="M18.8 20L22.7 23.9C22.8834 24.0834 22.975 24.3167 22.975 24.6C22.975 24.8834 22.8834 25.1167 22.7 25.3C22.5167 25.4834 22.2834 25.575 22 25.575C21.7167 25.575 21.4834 25.4834 21.3 25.3L16.7 20.7C16.6 20.6 16.5292 20.4917 16.4875 20.375C16.4459 20.2584 16.425 20.1334 16.425 20C16.425 19.8667 16.4459 19.7417 16.4875 19.625C16.5292 19.5084 16.6 19.4 16.7 19.3L21.3 14.7C21.4834 14.5167 21.7167 14.425 22 14.425C22.2834 14.425 22.5167 14.5167 22.7 14.7C22.8834 14.8834 22.975 15.1167 22.975 15.4C22.975 15.6834 22.8834 15.9167 22.7 16.1L18.8 20Z" fill="#0CDCEA"/>
</g>
</svg>
