<svg width="200" height="65" viewBox="0 0 200 65" fill="none" xmlns="http://www.w3.org/2000/svg">
<path d="M31.8356 0C15.0685 0 1.31507 13.0411 0 29.6438L17.0959 36.7671C18.5205 35.7808 20.274 35.1781 22.1918 35.1781C22.3562 35.1781 22.5205 35.1781 22.6849 35.1781L30.3014 24.0548V23.8904C30.3014 17.2055 35.726 11.726 42.3562 11.726C48.9863 11.726 54.411 17.1507 54.411 23.8904C54.411 30.5753 48.9863 36.0548 42.3562 36.0548C42.2466 36.0548 42.1918 36.0548 42.0822 36.0548L31.2329 43.8904C31.2329 44.0548 31.2329 44.1644 31.2329 44.3288C31.2329 49.3699 27.1781 53.4247 22.1918 53.4247C17.8082 53.4247 14.137 50.2466 13.3151 46.0822L1.09589 40.9863C4.87671 54.5206 17.2055 64.4384 31.8356 64.4384C49.4795 64.4384 63.7808 50.0274 63.7808 32.2192C63.726 14.411 49.4247 0 31.8356 0ZM20 48.8767L16.0548 47.2329C16.7671 48.7123 17.9726 49.9178 19.5616 50.5753C23.0137 52 27.0137 50.3562 28.4384 46.9041C29.1507 45.2055 29.1507 43.3425 28.4384 41.6438C27.726 39.9452 26.4658 38.6301 24.7671 37.9178C23.1233 37.2055 21.3151 37.2603 19.7808 37.863L23.8356 39.5616C26.3562 40.6575 27.5616 43.5616 26.5205 46.137C25.4795 48.7671 22.5753 49.9726 20 48.8767ZM50.3562 23.8904C50.3562 19.4521 46.7397 15.7808 42.3562 15.7808C37.9178 15.7808 34.3562 19.3973 34.3562 23.8904C34.3562 28.3288 37.9726 32 42.3562 32C46.7945 32 50.3562 28.3836 50.3562 23.8904ZM36.3288 23.8904C36.3288 20.548 39.0137 17.8082 42.3562 17.8082C45.6986 17.8082 48.3836 20.548 48.3836 23.8904C48.3836 27.2329 45.6986 29.9726 42.3562 29.9726C39.0137 29.9726 36.3288 27.2329 36.3288 23.8904Z" fill="#E0E0E0"/>
<path d="M200 43.2875H194.575V29.2053L189.206 43.2875H185.918L180.603 29.2053V43.2875H174.849V19.0684H181.644L187.562 35.5067L193.534 19.0684H200V43.2875Z" fill="#E0E0E0"/>
<path d="M160.548 19.3975H156.384L147.562 44.2194H152.712L154.192 40.1646H162.247L163.726 44.2194H169.37L160.548 19.3975ZM155.617 36.1098L158.575 27.2879L161.534 36.1098H155.617Z" fill="#E0E0E0"/>
<path d="M142.74 43.2875H126.575V19.0684H142.74V23.2327H131.726V28.9862H141.26V33.1506H131.726V39.1232H142.74V43.2875Z" fill="#E0E0E0"/>
<path d="M119.89 23.2327H113.973V43.2875H108.877V23.2327H102.247V19.0684H119.89V23.2327Z" fill="#E0E0E0"/>
<path d="M97.6438 36.1648C97.6438 41.1511 93.2603 43.4525 88.8219 43.5073C84.4384 43.5073 81.4795 42.4662 80 40.2744L82.9589 37.2607C84.4384 38.5757 85.9178 39.3429 88.8219 39.3429C91.726 39.3429 93.2055 38.3018 93.2055 36.3292C93.2055 34.4662 91.726 33.699 90.2466 33.3703L87.2877 32.9867C82.9041 32.384 80.6575 30.1374 80.6575 26.1374C80.6575 23.9456 81.3699 22.1922 82.8493 20.7675C84.3288 19.4525 86.5205 18.7949 88.7123 18.7949C92.3836 18.7949 94.5753 19.7264 96.7671 21.5894L93.8082 24.6031C92.3288 23.5073 90.8493 22.9045 88.6575 22.9045C86.4658 23.0689 84.9863 23.836 84.9863 25.973C84.9863 27.6716 86.4658 28.4935 87.9452 28.6031L90.9041 29.0415C94.6849 29.5346 97.6438 32.0552 97.6438 36.1648Z" fill="#E0E0E0"/>
</svg>
