<svg width="24" height="25" viewBox="0 0 24 25" fill="none" xmlns="http://www.w3.org/2000/svg">
<path d="M11.9794 0.5C5.6701 0.5 0.494845 5.35714 0 11.5408L6.43299 14.1939C6.96907 13.8265 7.62887 13.602 8.35052 13.602C8.41237 13.602 8.47423 13.602 8.53608 13.602L11.4021 9.45919V9.39796C11.4021 6.90817 13.4433 4.86735 15.9381 4.86735C18.433 4.86735 20.4742 6.88776 20.4742 9.39796C20.4742 11.8878 18.433 13.9286 15.9381 13.9286C15.8969 13.9286 15.8763 13.9286 15.8351 13.9286L11.7526 16.8469C11.7526 16.9082 11.7526 16.949 11.7526 17.0102C11.7526 18.8878 10.2268 20.398 8.35052 20.398C6.70103 20.398 5.31959 19.2143 5.01031 17.6633L0.412371 15.7653C1.83505 20.8061 6.47423 24.5 11.9794 24.5C18.6186 24.5 24 19.1327 24 12.5C23.9794 5.86735 18.5979 0.5 11.9794 0.5ZM7.52577 18.7041L6.04124 18.0918C6.30928 18.6429 6.76289 19.0918 7.36082 19.3367C8.65979 19.8673 10.1649 19.2551 10.701 17.9694C10.9691 17.3367 10.9691 16.6429 10.701 16.0102C10.433 15.3776 9.95876 14.8878 9.31959 14.6224C8.70103 14.3571 8.02062 14.3776 7.4433 14.602L8.96907 15.2347C9.91753 15.6429 10.3711 16.7245 9.97938 17.6837C9.58763 18.6633 8.49485 19.1122 7.52577 18.7041ZM18.9485 9.39796C18.9485 7.7449 17.5876 6.37755 15.9381 6.37755C14.268 6.37755 12.9278 7.72449 12.9278 9.39796C12.9278 11.051 14.2887 12.4184 15.9381 12.4184C17.6082 12.4184 18.9485 11.0714 18.9485 9.39796ZM13.6701 9.39796C13.6701 8.15306 14.6804 7.13265 15.9381 7.13265C17.1959 7.13265 18.2062 8.15306 18.2062 9.39796C18.2062 10.6429 17.1959 11.6633 15.9381 11.6633C14.6804 11.6633 13.6701 10.6429 13.6701 9.39796Z" fill="#0CDCEA"/>
</svg>
