<svg width="64" height="65" viewBox="0 0 64 65" fill="none" xmlns="http://www.w3.org/2000/svg">
<rect width="64" height="64.3299" rx="8" fill="#333217"/>
<path d="M31.9725 16C23.5601 16 16.6598 22.543 16 30.8729L24.5773 34.4467C25.2921 33.9519 26.1718 33.6495 27.134 33.6495C27.2165 33.6495 27.299 33.6495 27.3814 33.6495L31.2028 28.0687V27.9863C31.2028 24.6323 33.9244 21.8832 37.2509 21.8832C40.5773 21.8832 43.299 24.6048 43.299 27.9863C43.299 31.3402 40.5773 34.0893 37.2509 34.0893C37.1959 34.0893 37.1684 34.0893 37.1134 34.0893L31.6701 38.0206C31.6701 38.1031 31.6701 38.1581 31.6701 38.2406C31.6701 40.7698 29.6357 42.8041 27.134 42.8041C24.9347 42.8041 23.0928 41.2096 22.6804 39.1203L16.5498 36.5636C18.4467 43.354 24.6323 48.3299 31.9725 48.3299C40.8247 48.3299 48 41.0997 48 32.1649C47.9725 23.2302 40.7973 16 31.9725 16ZM26.0344 40.5223L24.055 39.6976C24.4124 40.4399 25.0172 41.0447 25.8144 41.3746C27.5464 42.0893 29.5533 41.2646 30.268 39.5326C30.6254 38.6804 30.6254 37.7457 30.268 36.8935C29.9107 36.0412 29.2784 35.3814 28.4261 35.0241C27.6014 34.6667 26.6942 34.6942 25.9244 34.9966L27.9588 35.8488C29.2234 36.3986 29.8282 37.8557 29.3058 39.1478C28.7835 40.4674 27.3265 41.0722 26.0344 40.5223ZM41.2646 27.9863C41.2646 25.7595 39.4502 23.9175 37.2509 23.9175C35.0241 23.9175 33.2371 25.732 33.2371 27.9863C33.2371 30.2131 35.0515 32.055 37.2509 32.055C39.4777 32.055 41.2646 30.2406 41.2646 27.9863ZM34.2268 27.9863C34.2268 26.3093 35.5739 24.9347 37.2509 24.9347C38.9278 24.9347 40.2749 26.3093 40.2749 27.9863C40.2749 29.6632 38.9278 31.0378 37.2509 31.0378C35.5739 31.0378 34.2268 29.6632 34.2268 27.9863Z" fill="#EAD40C"/>
</svg>
