<svg width="36" height="34" viewBox="0 0 36 34" fill="none" xmlns="http://www.w3.org/2000/svg">
<path fill-rule="evenodd" clip-rule="evenodd" d="M21.7657 5.62549C23.9568 5.62549 26.0222 6.43065 27.5817 7.89282C29.141 9.35482 30 11.2915 30 13.3458V20.407C30 22.4615 29.141 24.3981 27.5817 25.8601C26.0224 27.3223 23.9568 28.1275 21.7657 28.1275H14.2343C12.0432 28.1275 9.9776 27.3223 8.41827 25.8601C6.85876 24.3981 6 22.4615 6 20.407V13.3458C6 11.2915 6.85876 9.35482 8.41827 7.89282C9.9776 6.43065 12.0432 5.62549 14.2343 5.62549H21.7657ZM11.6484 16.8765C11.6484 20.1601 14.4977 22.8316 18 22.8316C21.5023 22.8316 24.3516 20.1601 24.3516 16.8765C24.3516 13.5928 21.5023 10.9214 18 10.9214C14.4977 10.9214 11.6484 13.5928 11.6484 16.8765ZM24.5392 11.4046C24.7242 11.4046 24.9056 11.3342 25.0364 11.2117C25.1673 11.0889 25.2424 10.9188 25.2424 10.7454C25.2424 10.5718 25.1673 10.4017 25.0364 10.2791C24.9056 10.1564 24.7242 10.0862 24.5392 10.0862C24.3539 10.0862 24.173 10.1564 24.0423 10.2791C23.911 10.4017 23.8361 10.5718 23.8361 10.7454C23.8361 10.919 23.911 11.0889 24.0423 11.2117C24.173 11.3342 24.3541 11.4046 24.5392 11.4046ZM15 16.8765C15 15.3255 16.3458 14.0637 18 14.0637C19.6543 14.0637 21 15.3255 21 16.8765C21 18.4274 19.6542 19.6892 18 19.6892C16.3458 19.6892 15 18.4274 15 16.8765Z" fill="white"/>
</svg>
