<svg width="132" height="40" viewBox="0 0 132 40" fill="none" xmlns="http://www.w3.org/2000/svg">
<path d="M126.281 38.1279H4.47707C2.45923 38.2232 0.808273 36.5075 0.716553 34.4104V34.3151V3.81279C0.716553 1.71576 2.36751 0 4.38535 0H4.47707H126.373C128.391 0 130.133 1.71576 130.133 3.81279V34.3151C130.042 36.4122 128.391 38.1279 126.281 38.1279Z" fill="black"/>
<path d="M32.0395 18.3002C32.0395 15.1198 34.8903 13.6231 34.9921 13.5296C33.8722 11.9394 31.9377 11.004 29.9015 11.004C27.8652 10.8169 25.7271 12.1265 24.7089 12.1265C23.589 12.1265 21.96 11.004 20.1273 11.004C17.7856 11.004 15.6475 12.22 14.5276 14.1844C12.084 18.0196 13.9167 23.7256 16.2584 26.8124C17.3784 28.3091 18.8037 29.9928 20.5346 29.9928C22.2654 29.8993 22.9781 28.9639 25.0144 28.9639C27.1525 28.9639 27.7634 29.9928 29.4942 29.8993C31.3268 29.8993 32.5486 28.4026 33.6686 26.8124C34.9921 25.0351 35.603 23.3514 35.603 23.2579C35.603 23.2579 32.0395 22.0418 32.0395 18.3002ZM28.5779 8.94609C29.596 7.8236 30.1051 6.42048 30.0033 4.92383C28.6797 5.01737 26.9489 5.7657 25.9307 6.79465C25.0144 7.73006 24.3017 9.22671 24.5053 10.6298C26.0325 10.8169 27.5597 9.97504 28.5779 8.94609Z" fill="white"/>
<path d="M51.7488 29.0064H49.613L48.4561 25.6592H44.3626L43.2057 29.0064H41.1589L45.2525 17.5769H47.7442L51.7488 29.0064ZM48.1002 24.1897L47.0323 21.2507L46.4094 19.1281L45.7864 21.2507L44.7186 24.1897H48.1002ZM62.1607 24.7612C62.2497 25.9858 61.8047 27.2104 60.9148 28.1084C60.2029 28.8431 59.224 29.1697 58.1561 29.1697C56.9992 29.1697 56.1093 28.7615 55.5754 28.0267V32.3536H53.5286V23.455L53.4396 20.7609H55.2194L55.3084 22.0671C55.9313 21.0874 57.0882 20.516 58.3341 20.5976C59.402 20.5976 60.2919 21.0058 61.0038 21.7405C61.8047 22.5569 62.2497 23.6182 62.1607 24.7612ZM60.1139 24.8428C60.1139 24.0264 59.9359 23.3733 59.491 22.8835C59.046 22.312 58.5121 22.0671 57.7112 22.0671C57.1772 22.0671 56.7323 22.2304 56.3763 22.4753C55.9313 22.8018 55.7534 23.1284 55.5754 23.6182L55.4864 24.1897V25.5776C55.4864 26.149 55.6644 26.6389 56.1093 27.1287C56.5543 27.5369 56.9992 27.7818 57.7112 27.7818C58.4231 27.7818 59.046 27.5369 59.491 26.9654C59.9359 26.3123 60.1139 25.5776 60.1139 24.8428ZM72.4836 24.7612C72.5725 25.9858 72.1276 27.2104 71.2377 28.1084C70.5258 28.8431 69.5469 29.1697 68.479 29.1697C67.3221 29.1697 66.4322 28.7615 65.8983 28.0267V32.3536H63.8515V23.455L63.7625 20.7609H65.5423L65.7203 22.0671C66.3432 21.0874 67.5001 20.516 68.746 20.5976C69.8138 20.5976 70.7038 21.0058 71.4157 21.7405C72.1276 22.4753 72.4836 23.5366 72.4836 24.7612ZM70.4368 24.8428C70.4368 24.0264 70.2588 23.3733 69.8138 22.8835C69.3689 22.312 68.835 22.0671 68.034 22.0671C67.5001 22.0671 67.0551 22.2304 66.6992 22.4753C66.2542 22.8018 66.0762 23.1284 65.8983 23.6182L65.8093 24.1897V25.5776C65.8093 26.149 65.9873 26.6389 66.4322 27.1287C66.8772 27.5369 67.3221 27.7818 68.034 27.7818C68.746 27.7818 69.3689 27.5369 69.8138 26.9654C70.2588 26.394 70.4368 25.7408 70.4368 24.8428ZM84.1413 25.7408C84.1413 26.7205 83.7853 27.5369 83.0734 28.1084C82.2725 28.7615 81.1156 29.088 79.6918 29.088C78.3569 29.088 77.289 28.8431 76.4881 28.3533L76.9331 26.8022C77.823 27.292 78.8019 27.5369 79.8698 27.5369C80.5817 27.5369 81.2046 27.3736 81.6496 27.0471C82.0945 26.7205 82.2725 26.3123 82.2725 25.8225C82.2725 25.3327 82.0945 25.0061 81.7386 24.6795C81.3826 24.353 80.8487 24.1081 80.0477 23.7815C77.823 23.0468 76.7551 21.9855 76.7551 20.516C76.7551 19.6179 77.1111 18.8015 77.912 18.2301C78.7129 17.6586 79.6918 17.332 80.9376 17.332C82.0945 17.332 82.9844 17.4953 83.7853 17.9035L83.2514 19.373C82.5395 19.0465 81.6496 18.8832 80.8487 18.8832C80.1367 18.8832 79.6028 19.0465 79.1578 19.373C78.8019 19.6179 78.6239 20.0261 78.6239 20.4343C78.6239 20.9241 78.8019 21.2507 79.1578 21.5773L80.9376 22.4753C81.8275 22.8018 82.6285 23.21 83.3404 23.8632C83.8743 24.353 84.1413 25.0061 84.1413 25.7408ZM90.7266 22.1487H88.5018V26.149C88.5018 27.1287 88.8578 27.7002 89.6587 27.7002L90.5486 27.6185L90.6376 29.0064C90.2816 29.1697 89.7477 29.1697 89.0358 29.1697C88.2349 29.1697 87.6119 28.9248 87.167 28.5166C86.722 28.1084 86.455 27.3736 86.455 26.3123V22.1487H85.2982V20.7609H86.633V19.2914L88.5908 18.7199V20.7609H90.8156V22.1487H90.7266ZM100.694 24.7612C100.694 25.9858 100.338 27.0471 99.5366 27.8635C98.7357 28.6799 97.5788 29.088 96.244 29.088C94.9091 29.088 93.8413 28.6799 93.0403 27.8635C92.2394 27.0471 91.8835 26.0674 91.8835 24.8428C91.8835 23.5366 92.3284 22.5569 93.1293 21.7405C93.9302 20.9241 94.9981 20.516 96.422 20.516C97.7568 20.516 98.8247 20.9241 99.6256 21.7405C100.338 22.5569 100.694 23.5366 100.694 24.7612ZM98.6467 24.8428C98.6467 24.1081 98.4688 23.455 98.1128 22.8835C97.6678 22.2304 97.1339 21.9038 96.333 21.9038C95.5321 21.9038 94.9091 22.2304 94.4642 22.8835C94.1082 23.455 93.9302 24.1081 93.9302 24.8428C93.9302 25.5776 94.1082 26.2307 94.4642 26.8022C94.9091 27.4553 95.5321 27.7818 96.244 27.7818C97.0449 27.7818 97.5788 27.4553 98.0238 26.8022C98.4688 26.3123 98.6467 25.5776 98.6467 24.8428ZM107.279 22.3936L106.656 22.312C106.033 22.312 105.41 22.5569 105.054 23.0468C104.698 23.455 104.52 24.0264 104.52 24.6795V29.0064H102.473V23.3733L102.384 20.7609H104.164L104.253 22.312H104.342C104.52 21.8222 104.876 21.3323 105.321 21.0058C105.766 20.6792 106.211 20.5976 106.745 20.5976H107.279V22.3936ZM116.267 24.5163L116.178 25.3327H110.126C110.126 26.0674 110.393 26.7205 111.016 27.2104C111.55 27.6185 112.173 27.7818 112.974 27.7818C113.864 27.7818 114.665 27.6185 115.377 27.3736L115.733 28.6799C114.754 29.0064 113.775 29.1697 112.707 29.1697C111.461 29.2513 110.304 28.8431 109.415 28.0267C108.614 27.2104 108.169 26.149 108.258 25.0061C108.258 23.7815 108.614 22.7202 109.415 21.9038C110.126 21.0058 111.283 20.5976 112.529 20.5976C113.864 20.5976 114.843 21.0058 115.466 21.9038C116 22.5569 116.267 23.455 116.267 24.5163ZM114.309 24.0264C114.309 23.5366 114.22 23.0468 113.953 22.6386C113.597 22.1487 112.974 21.9038 112.351 21.9038C111.728 21.9038 111.194 22.1487 110.749 22.6386C110.393 23.0468 110.215 23.5366 110.126 24.0264H114.309Z" fill="white"/>
<path d="M46.1389 10.8986C46.1389 11.8355 45.7894 12.6162 45.1778 13.0847C44.5663 13.5531 43.6926 13.7873 42.5568 13.7873L41.1589 13.7093V8.40019L42.8189 8.32211C43.8673 8.32211 44.6536 8.55634 45.1778 8.94671C45.8768 9.41516 46.1389 10.0398 46.1389 10.8986ZM45.0905 10.8986C45.0905 10.274 44.9157 9.80553 44.5663 9.49324C44.2168 9.18094 43.6052 9.02479 42.9063 9.02479L42.12 9.10286V13.0847H42.8189C43.5179 13.0847 44.1294 12.9285 44.5663 12.5382C44.9157 12.1478 45.0905 11.6013 45.0905 10.8986ZM51.5557 11.7574C51.5557 12.382 51.3809 12.8504 50.9441 13.2408C50.5073 13.6312 49.9831 13.8654 49.3715 13.8654C48.7599 13.8654 48.2357 13.7093 47.8862 13.3189C47.4494 12.8504 47.2747 12.382 47.2747 11.8355C47.2747 11.2109 47.4494 10.7424 47.8862 10.3521C48.2357 9.96168 48.7599 9.80553 49.4589 9.80553C50.0704 9.80553 50.5946 9.96168 51.0315 10.3521C51.3809 10.6644 51.5557 11.1328 51.5557 11.7574ZM50.5073 11.7574C50.5073 11.367 50.4199 11.1328 50.2452 10.8205C50.0704 10.5082 49.721 10.3521 49.3715 10.3521C49.022 10.3521 48.6725 10.5082 48.4978 10.8205L48.2357 11.7574C48.2357 12.1478 48.3231 12.382 48.4978 12.6943C48.6725 13.0066 49.022 13.1627 49.3715 13.1627C49.721 13.1627 50.0704 13.0066 50.2452 12.6943C50.4199 12.4601 50.5073 12.1478 50.5073 11.7574ZM58.8072 9.88361L57.4093 13.7093H56.5356L56.0114 12.0697L55.6619 10.8205L55.3125 12.0697L54.7009 13.7093H53.8272L52.5167 9.88361H53.4778L54.002 11.7574L54.2641 13.0066L54.6135 11.7574L55.2251 9.88361H56.0114L56.623 11.6793L56.9725 12.9285L57.2346 11.6793L57.7588 9.88361H58.8072ZM63.7871 13.7093H62.8261V11.5232C62.8261 10.8205 62.564 10.5082 61.9524 10.5082C61.6903 10.5082 61.4282 10.5863 61.2535 10.8205C61.0787 10.9767 60.9914 11.2109 60.9914 11.4451V13.7093H60.0303V10.9767V9.88361H60.904L60.9914 10.5082L61.5156 10.0398C61.7777 9.88361 62.0398 9.80553 62.3892 9.80553C62.8261 9.80553 63.1755 9.88361 63.4377 10.1178C63.7871 10.4301 63.9619 10.8205 63.9619 11.367V13.7093H63.7871ZM66.4955 13.7093H65.5345V8.08789H66.4955V13.7093ZM72.1744 11.7574C72.1744 12.382 71.9997 12.8504 71.5628 13.2408C71.126 13.6312 70.6018 13.8654 69.9902 13.8654C69.3786 13.8654 68.8544 13.7093 68.505 13.3189C68.1555 12.9285 67.8934 12.4601 67.8934 11.9136C67.8934 11.289 68.0681 10.8205 68.505 10.4301C68.8544 10.0398 69.466 9.88361 70.0776 9.88361C70.6892 9.88361 71.2134 10.0398 71.6502 10.4301C71.9997 10.6644 72.1744 11.1328 72.1744 11.7574ZM71.2134 11.7574C71.2134 11.367 71.126 11.1328 70.9513 10.8205C70.7765 10.5082 70.4271 10.3521 70.0776 10.3521C69.7281 10.3521 69.3786 10.5082 69.2039 10.8205C69.0292 11.0547 68.9418 11.367 68.9418 11.7574C68.9418 12.1478 69.0292 12.382 69.2039 12.6943C69.3786 13.0066 69.7281 13.1627 70.0776 13.1627C70.4271 13.1627 70.7765 13.0066 70.9513 12.6943C71.126 12.4601 71.2134 12.1478 71.2134 11.7574ZM76.8923 13.7093H76.0186L75.9312 13.2408C75.6691 13.6312 75.2323 13.7873 74.6207 13.7873C74.1839 13.7873 73.8344 13.7093 73.6597 13.475C73.3976 13.2408 73.3102 13.0066 73.3102 12.6943C73.3102 12.2259 73.5723 11.8355 74.0091 11.6013C74.5333 11.289 75.2323 11.2109 75.8438 11.2109V11.1328C75.8438 10.5863 75.5817 10.3521 74.9702 10.3521C74.5333 10.3521 74.1839 10.4301 73.8344 10.6644L73.6597 10.1178C74.0965 9.88361 74.6207 9.80553 75.1449 9.80553C76.2807 9.80553 76.8923 10.3521 76.8923 11.367V12.7724V13.7093ZM75.8438 12.382V11.7574C74.7954 11.7574 74.2712 11.9916 74.2712 12.5382L74.446 13.0066L74.9702 13.1627L75.5817 13.0066L75.9312 12.5382L75.8438 12.382ZM82.3964 13.7093H81.5227L81.4354 13.0847C81.1733 13.5531 80.7364 13.7873 80.0375 13.7873C79.5133 13.7873 79.0764 13.6312 78.727 13.2408C78.3775 12.8504 78.2028 12.382 78.2028 11.8355C78.2028 11.2109 78.3775 10.7424 78.727 10.3521C79.0764 9.96168 79.5133 9.80553 80.0375 9.80553C80.6491 9.80553 80.9985 9.96168 81.2606 10.3521V8.08789H82.2217V12.6943L82.3964 13.7093ZM81.348 12.0697V11.4451V11.2109L80.9985 10.6644C80.8238 10.5082 80.6491 10.4301 80.387 10.4301C80.0375 10.4301 79.7754 10.5863 79.5133 10.8205C79.3385 11.0547 79.1638 11.367 79.1638 11.8355C79.1638 12.2259 79.2512 12.5381 79.4259 12.7724C79.6006 13.0066 79.9501 13.1627 80.2996 13.1627C80.6491 13.1627 80.9112 13.0847 81.0859 12.8504C81.2606 12.6162 81.348 12.382 81.348 12.0697ZM90.6963 11.7574C90.6963 12.382 90.5216 12.8504 90.0847 13.2408C89.6479 13.6312 89.1237 13.8654 88.5121 13.8654C87.9006 13.8654 87.3764 13.7093 87.0269 13.3189C86.6774 12.9285 86.4153 12.4601 86.4153 11.9136C86.4153 11.289 86.59 10.8205 87.0269 10.4301C87.3764 9.96168 87.9006 9.80553 88.5995 9.80553C89.2111 9.80553 89.7353 9.96168 90.1721 10.3521C90.4342 10.6644 90.6963 11.1328 90.6963 11.7574ZM89.6479 11.7574C89.6479 11.367 89.5605 11.1328 89.3858 10.8205C89.2111 10.5082 88.8616 10.3521 88.5121 10.3521C88.1627 10.3521 87.8132 10.5082 87.6385 10.8205C87.4637 11.0547 87.3764 11.367 87.3764 11.7574C87.3764 12.1478 87.4637 12.382 87.6385 12.6943C87.8132 13.0066 88.1627 13.1627 88.5121 13.1627C88.8616 13.1627 89.2111 13.0066 89.3858 12.6943C89.5605 12.4601 89.6479 12.1478 89.6479 11.7574ZM95.851 13.7093H94.89V11.5232C94.89 10.8205 94.6279 10.5082 94.0163 10.5082C93.7542 10.5082 93.4921 10.5863 93.3174 10.8205C93.1426 10.9767 93.0552 11.2109 93.0552 11.4451V13.7093H92.0942V10.9767V9.88361H92.9679V10.4301L93.4921 9.96168C93.7542 9.80553 94.0163 9.72746 94.3658 9.72746C94.8026 9.72746 95.1521 9.80553 95.4142 10.0398C95.7636 10.3521 95.9384 10.7424 95.9384 11.289L95.851 13.7093ZM102.404 10.5082H101.355V12.382C101.355 12.8504 101.53 13.0847 101.879 13.0847L102.316 13.0066V13.6312L101.53 13.7093C101.18 13.7093 100.831 13.6312 100.656 13.397C100.481 13.1627 100.307 12.8504 100.307 12.382V10.5082H99.6952V9.88361H100.307V9.10286L101.268 8.86864V9.80553H102.316L102.404 10.5082ZM107.471 13.7093H106.51V11.5232C106.51 10.8205 106.248 10.5082 105.636 10.5082C105.199 10.5082 104.85 10.7424 104.675 11.1328L104.588 11.4451V13.7873H103.627V8.08789H104.588V10.4301C104.85 10.0398 105.287 9.80553 105.898 9.80553C106.335 9.80553 106.597 9.88361 106.859 10.1178C107.209 10.4301 107.384 10.8205 107.384 11.4451L107.471 13.7093ZM112.8 11.6013V11.9916H109.917C109.917 12.382 110.092 12.6943 110.354 12.8504C110.616 13.0066 110.878 13.0847 111.315 13.0847L112.451 12.9285L112.626 13.5531C112.189 13.7093 111.752 13.7873 111.14 13.7873C110.441 13.7873 109.917 13.6312 109.568 13.2408C109.218 12.8504 108.956 12.382 108.956 11.8355C108.956 11.289 109.131 10.7424 109.48 10.3521C109.83 9.96168 110.354 9.72746 110.966 9.72746C111.577 9.72746 112.101 9.96168 112.363 10.3521C112.626 10.7424 112.8 11.1328 112.8 11.6013ZM111.839 11.367L111.665 10.7424C111.49 10.5082 111.228 10.3521 110.878 10.3521C110.529 10.3521 110.267 10.4301 110.092 10.6644C109.917 10.8205 109.83 11.0547 109.83 11.367H111.839Z" fill="white"/>
<path fill-rule="evenodd" clip-rule="evenodd" d="M126.907 0.873049H5.09817C3.16225 0.873049 1.59288 2.43656 1.59288 4.36524V34.922C1.59288 36.8506 3.16225 38.4142 5.09817 38.4142H126.907C128.843 38.4142 130.412 36.8506 130.412 34.922V4.36524C130.412 2.43656 128.843 0.873049 126.907 0.873049ZM5.09817 0C2.67827 0 0.716553 1.95439 0.716553 4.36524V34.922C0.716553 37.3328 2.67827 39.2872 5.09817 39.2872H126.907C129.327 39.2872 131.289 37.3328 131.289 34.922V4.36524C131.289 1.95439 129.327 0 126.907 0H5.09817Z" fill="white"/>
</svg>
