<svg width="64" height="56" viewBox="0 0 64 56" fill="none" xmlns="http://www.w3.org/2000/svg">
<g clip-path="url(#clip0_1536_3563)">
<rect width="64" height="56" rx="8" fill="#19334F"/>
<path d="M32 40C38.6274 40 44 34.6274 44 28C44 21.3726 38.6274 16 32 16C25.3726 16 20 21.3726 20 28C20 34.6274 25.3726 40 32 40Z" fill="url(#paint0_linear_1536_3563)"/>
<path d="M24.9943 27.8959L33.0752 24.5664C33.8729 24.2196 36.5781 23.1098 36.5781 23.1098C36.5781 23.1098 37.8267 22.6242 37.7226 23.8034C37.6879 24.289 37.4105 25.9884 37.133 27.8265L36.266 33.2716C36.266 33.2716 36.1966 34.0693 35.607 34.208C35.0174 34.3468 34.0463 33.7225 33.8729 33.5838C33.7342 33.4797 31.2718 31.919 30.37 31.156C30.1273 30.9479 29.8498 30.5317 30.4047 30.0462C31.6533 28.9017 33.1446 27.4797 34.0463 26.578C34.4625 26.1618 34.8787 25.1907 33.1446 26.3699L28.2544 29.6647C28.2544 29.6647 27.6995 30.0115 26.659 29.6994C25.6186 29.3872 24.4047 28.971 24.4047 28.971C24.4047 28.971 23.5723 28.4508 24.9943 27.8959Z" fill="white"/>
</g>
<defs>
<linearGradient id="paint0_linear_1536_3563" x1="36.0009" y1="20.0009" x2="30.0009" y2="34" gradientUnits="userSpaceOnUse">
<stop stop-color="#37AEE2"/>
<stop offset="0.0001" stop-color="#37AEE2"/>
<stop offset="1" stop-color="#1E96C8"/>
</linearGradient>
<clipPath id="clip0_1536_3563">
<rect width="64" height="56" rx="8" fill="white"/>
</clipPath>
</defs>
</svg>
