<svg width="36" height="34" viewBox="0 0 36 34" fill="none" xmlns="http://www.w3.org/2000/svg">
<path d="M1.49359 18.2835L6.9765 20.2455C8.1091 20.6508 9.37451 20.5081 10.3796 19.8616L22.0631 12.3479C22.3281 12.1775 22.6808 12.2112 22.906 12.4285C23.174 12.6871 23.1655 13.1088 22.8874 13.3572L14.2412 21.0761C13.7484 21.5161 13.787 22.2787 14.3217 22.6704L23.4535 29.3572C25.0993 30.5624 27.4826 29.6335 27.7989 27.6638L30.977 7.86705C31.2009 6.47196 29.7506 5.38143 28.4028 5.9315L1.46184 16.9269C1.18198 17.0412 1 17.3059 1 17.5991C1 17.9044 1.19686 18.1774 1.49359 18.2835Z" fill="white"/>
</svg>
